<?xml version="1.0" encoding="UTF-8" standalone="no"?>
<!-- Created with Inkscape (http://www.inkscape.org/) -->

<svg
   version="1.1"
   id="svg1"
   width="1024"
   height="1536"
   viewBox="0 0 1024 1536"
   xmlns="http://www.w3.org/2000/svg"
   xmlns:svg="http://www.w3.org/2000/svg">
  <defs
     id="defs1" />
  <g
     id="g1">
    <path
       style="fill:#000000;stroke-width:1.40558"
       d="m -161.89672,1844.5202 c -0.35842,-0.5798 293.50397,-1.0541 653.02735,-1.0541 359.5235,0 653.67907,0.4743 653.67907,1.0541 0,0.5798 -293.86222,1.0542 -653.02729,1.0542 -359.1651,0 -653.3207,-0.4744 -653.67913,-1.0542 z m 60.24525,-47.2287 c -1.30831,-0.8301 -1.70216,-4.4672 -1.40558,-12.9802 l 0.41198,-11.8272 8.082099,-0.4215 c 6.543971,-0.3413 8.082101,0 8.082101,1.757 0,1.6047 -1.481345,2.1786 -5.622332,2.1786 -5.060098,0 -5.622331,0.3513 -5.622331,3.5139 0,3.0945 0.601167,3.514 5.036625,3.514 6.350845,0 5.866902,3.3181 -0.576711,3.9543 -4.179642,0.4129 -4.459914,0.7883 -4.459914,5.9739 0,5.6302 -0.688596,6.3908 -3.925937,4.3372 z m 19.387348,-12.1571 v -13.353 h 6.325123 c 4.450919,0 7.158071,0.8329 9.136288,2.8112 3.412896,3.413 3.480505,4.7581 0.493641,9.8145 -2.201564,3.7269 -2.166425,4.1349 0.702791,8.1645 3.773429,5.2992 3.761622,5.6677 -0.158268,4.9184 -1.748264,-0.3342 -4.752697,-2.9347 -6.676519,-5.7788 l -3.497933,-5.1712 -0.432217,5.9737 c -0.349427,4.8294 -0.955234,5.9737 -3.162561,5.9737 -2.511917,0 -2.730345,-1.0687 -2.730345,-13.353 z m 9.949277,-2.1673 c 2.198332,-1.1766 2.446979,-2.006 1.26376,-4.2168 -2.300517,-4.2985 -5.590706,-3.4364 -5.590706,1.4645 0,4.6583 0.349849,4.8808 4.326946,2.7523 z m 13.945632,2.36 v -13.2525 l 7.965719,0.2047 c 9.523104,0.2449 12.695645,3.7189 3.396029,3.7189 -5.185056,0 -5.739417,0.3394 -5.739417,3.5139 0,2.9675 0.655845,3.514 4.216748,3.514 2.319212,0 4.216748,0.6324 4.216748,1.4056 0,0.773 -1.897536,1.4054 -4.216748,1.4054 -3.748267,0 -4.216748,0.4686 -4.216748,4.2168 0,3.9969 0.299249,4.2168 5.739417,4.2168 8.743145,0 6.046955,3.0019 -3.32828,3.7057 l -8.033468,0.6031 z m 21.703744,11.0967 c -2.964381,-2.2421 -2.410581,-2.5466 4.96804,-2.7326 6.83548,-0.1724 7.03423,-3.635 0.41042,-7.1512 -10.394562,-5.5178 -5.77174,-16.3474 6.03305,-14.1327 6.31317,1.1844 5.65565,4.2936 -0.90801,4.2936 -6.28984,0 -6.29842,3.0896 -0.0169,6.1238 6.72192,3.2472 8.10629,7.8223 3.7002,12.2284 -3.90837,3.9084 -10.04739,4.5016 -14.18668,1.3707 z m 38.2970697,1.156 c -0.53159,-0.5315 -0.96634996,-3.2854 -0.96634996,-6.1196 0,-4.5109 -0.39426,-5.1094 -3.16256004,-4.8024 -1.7394,0.1929 -3.95319,0.4035 -4.91953,0.4679 -1.04871,0.07 -1.75698,2.1006 -1.75698,5.0366 0,4.0139 -0.52764,4.9195 -2.8659797,4.9195 -2.6966,0 -2.8418,-0.7259 -2.45977,-12.2988 0.32413,-9.8148 0.83196,-12.2989 2.51459,-12.2989 1.42175,0 2.2503397,1.7167 2.5445297,5.271 0.41099,4.965 0.71206,5.271 5.18617,5.271 4.47201004,0 4.77532004,-0.3077 5.18604004,-5.2592 0.30880996,-3.7231 1.17055996,-5.3986 2.95031996,-5.7359 2.2911,-0.4343 2.47803,0.6763 2.10838,12.5249 -0.3732,11.96 -1.63948,15.7434 -4.35886,13.0239 z m 22.9285603,-12.5211 v -13.6349 l 7.11057,0.6832 c 8.32498,0.8 10.22491,2.2838 10.22491,7.9862 0,5.5076 -2.70013,8.5551 -7.57946,8.5551 -3.433,0 -4.01378,0.6021 -4.39611,4.5569 -0.29011,3.0009 -1.2802,4.7155 -2.90014,5.0225 -2.20563,0.4178 -2.45977,-0.9429 -2.45977,-13.169 z m 10.9866,-4.4804 c -0.26832,-2.3241 -1.42103,-4.0385 -2.90449,-4.3198 -1.91033,-0.3623 -2.45977,0.4986 -2.45977,3.8534 0,3.429 0.59892,4.3198 2.9045,4.3198 2.33748,0 2.81762,-0.7523 2.45976,-3.8534 z m 8.20257,16.8496 c -0.36011,-0.5828 1.58142,-6.5237 4.31457,-13.2021 3.58902,-8.7696 5.60238,-12.0546 7.24845,-11.8258 2.50911,0.3488 12.04936,22.5188 10.65854,24.7692 -1.56947,2.5394 -4.82016,1.2859 -5.69402,-2.1957 -0.71304,-2.8411 -1.75136,-3.514 -5.42345,-3.514 -3.48036,0 -4.91574,0.8211 -6.14266,3.514 -1.58157,3.4714 -3.68868,4.5138 -4.96143,2.4544 z m 12.2654,-14.0505 c -0.50995,-2.1259 -1.02496,-3.9993 -1.14444,-4.1631 -0.11949,-0.1636 -0.9243,1.5757 -1.78846,3.8654 -1.40403,3.7196 -1.28203,4.163 1.14443,4.163 2.25048,0 2.55689,-0.6622 1.78847,-3.8653 z m 16.68666,14.1181 c -1.73942,-0.3349 -3.16258,-1.5966 -3.16258,-2.8037 0,-1.7154 1.05476,-2.0234 4.83241,-1.4102 6.85839,1.1129 9.53814,-2.2658 4.04863,-5.1046 -6.07296,-3.1405 -9.27824,-7.3077 -8.20973,-10.6741 1.3131,-4.1373 5.84316,-6.1307 11.5144,-5.0667 6.12145,1.1484 5.44087,4.2647 -0.93147,4.2647 -6.38191,0 -6.88259,2.9538 -0.92277,5.4439 8.59077,3.5895 10.15083,11.4331 2.92839,14.7238 -3.61572,1.6475 -4.51052,1.703 -10.09728,0.6269 z m 25.88605,0.055 c -0.51529,-0.5154 -0.93696,-5.5756 -0.93696,-11.2447 0,-10.0577 -0.0858,-10.3077 -3.51396,-10.3077 -2.26369,0 -3.51395,-0.7891 -3.51395,-2.218 0,-1.8604 1.62612,-2.1381 10.085049,-1.7217 6.32119,0.3112 10.29927,1.139 10.65895,2.2181 0.37024,1.1103 -0.96493,1.7216 -3.75993,1.7216 h -4.33383 v 11.2447 c 0,8.4334 -0.46862,11.2447 -1.87421,11.2447 -1.0307,0 -2.295729,-0.4217 -2.811159,-0.937 z m 13.411509,-0.091 c -1.13852,-0.408 -1.34782,-1.2551 -0.56139,-2.271 0.68986,-0.8911 3.01469,-6.5223 5.1665,-12.5136 5.30213,-14.7632 7.21542,-14.5278 13.67,1.6826 2.75409,6.9167 4.65767,12.9256 4.23024,13.3531 -1.81011,1.81 -4.6969,0.5331 -6.18682,-2.7368 -1.24254,-2.7272 -2.65219,-3.514 -6.29491,-3.514 -3.04997,0 -4.69394,0.6782 -4.69394,1.9364 0,2.5573 -3.04786,4.8811 -5.32968,4.0633 z m 12.04106,-13.8635 c -1.49104,-3.2728 -1.76639,-3.381 -2.68213,-1.0542 -1.60785,4.0853 -1.40305,4.7012 1.56287,4.7012 2.48338,0 2.60328,-0.3901 1.11926,-3.647 z m 16.15268,13.451 c -4.55957,-1.8337 -2.75663,-5.8887 1.84103,-4.1407 3.56161,1.3541 7.62332,0.5128 7.62332,-1.5792 0,-0.6807 -2.56785,-2.8586 -5.70625,-4.8397 -4.97365,-3.1399 -5.65015,-4.1761 -5.27092,-8.0744 0.32665,-3.3563 1.35062,-4.7921 4.10316,-5.7537 4.68397,-1.6364 11.09077,-0.061 11.09077,2.7268 0,1.6905 -1.04296,1.9497 -4.91955,1.2225 -6.7617,-1.2686 -6.58262,2.0625 0.3514,6.5367 11.48516,7.4111 3.82051,19.1034 -9.11296,13.9017 z m 75.79707,0.4383 c -4.84785,-0.9265 -2.83296,-3.9171 2.63898,-3.9171 6.61707,0 7.04337,-3.6743 0.77322,-6.6645 -11.24372,-5.3617 -5.37102,-17.6145 6.95917,-14.5197 5.08006,1.2749 3.43862,4.3172 -2.32933,4.3172 -6.28984,0 -6.29842,3.0896 -0.0169,6.1238 6.72192,3.2472 8.10628,7.8223 3.7002,12.2284 -3.34951,3.3495 -5.06248,3.7049 -11.72523,2.4319 z m 24.86827,0.053 c -0.0885,-0.6367 -0.031,-2.3768 0.13073,-3.8672 0.16093,-1.4904 -0.12795,-6.076 -0.64208,-10.1905 -0.84039,-6.7265 -1.27866,-7.4806 -4.34747,-7.4806 -2.09656,0 -3.41275,-0.8132 -3.41275,-2.1085 0,-1.6866 2.10838,-2.1083 10.54187,-2.1083 8.4335,0 10.54187,0.4217 10.54187,2.1083 0,1.3024 -1.32096,2.1085 -3.45493,2.1085 -3.33642,0 -3.46883,0.3728 -3.86535,10.878 -0.34141,9.0484 -0.82422,10.9572 -2.87019,11.3478 -1.35288,0.2583 -2.53272,-0.051 -2.6217,-0.6875 z m 21.74746,-0.4124 c -9.37467,-3.8773 -10.02728,-19.6615 -0.98349,-23.782 8.68889,-3.9589 15.94311,1.3068 15.94311,11.5728 0,9.7417 -7.03789,15.4856 -14.95962,12.2092 z m 7.65059,-4.5401 c 2.18469,-2.1846 2.18469,-12.7143 0,-14.8991 -5.91779,-5.9179 -12.58503,5.4923 -8.10305,13.8671 1.6399,3.064 5.57032,3.5648 8.10305,1.032 z m 12.93136,-7.4496 c 0,-16.0212 1.24254,-16.7896 9.24185,-5.7158 l 5.51677,7.6372 0.70279,-7.2857 c 0.50419,-5.2268 1.29862,-7.2859 2.81117,-7.2859 1.71636,0 2.10837,2.3296 2.10837,12.5331 0,8.5125 -0.54227,12.714 -1.69007,13.0965 -0.92965,0.3099 -4.56659,-3.3439 -8.0821,-8.1195 l -6.39204,-8.683 v 8.5881 c 0,6.6969 -0.46439,8.588 -2.10836,8.588 -1.7262,0 -2.10838,-2.4207 -2.10838,-13.353 z m 27.63854,12.4225 c -0.12654,-0.1256 -0.0266,-5.9763 0.22139,-13.0016 l 0.45118,-12.7739 h 7.63091 c 5.8461,0 7.63106,0.4932 7.63106,2.1083 0,1.5076 -1.53576,2.1085 -5.38746,2.1085 -4.72431,0 -5.35655,0.3893 -5.13629,3.1625 0.19369,2.4382 1.10563,3.1499 3.98187,3.1072 2.68228,-0.04 3.73071,0.6589 3.73071,2.4866 0,2.0095 -0.73611,2.3572 -3.51396,1.66 -3.18379,-0.7991 -3.51396,-0.4714 -3.51396,3.4872 0,4.042 0.36208,4.3691 4.83647,4.3691 8.52711,0 6.73401,2.5434 -2.14141,3.0373 -4.70841,0.2622 -8.66414,0.3741 -8.79051,0.2488 z m 52.47969,0.3341 c 0,-0.3281 1.81194,-5.2301 4.02671,-10.8933 2.21464,-5.6632 4.4086,-11.4037 4.87541,-12.7566 0.46678,-1.3528 1.9754,-2.4515 3.35259,-2.4415 3.34768,0.024 12.64265,23.794 9.9542,25.4556 -2.05286,1.2689 -5.34193,-1.1074 -5.34193,-3.8593 0,-1.2582 -1.6441,-1.9364 -4.69394,-1.9364 -3.64285,0 -5.0525,0.7869 -6.29504,3.514 -0.88059,1.9327 -2.56336,3.5139 -3.73955,3.5139 -1.17619,0 -2.13845,-0.2684 -2.13845,-0.5964 z m 13.95701,-11.7024 c -0.0548,-0.5798 -0.52878,-2.1321 -1.05418,-3.4497 -0.82129,-2.0591 -1.18364,-1.9112 -2.58009,1.0542 -1.42443,3.0242 -1.29441,3.4498 1.05418,3.4498 1.47333,0 2.63435,-0.4744 2.58009,-1.0543 z m 15.12098,11.3912 c -0.5316,-0.5315 -0.96634,-6.6 -0.96634,-13.4855 0,-11.1632 0.26637,-12.4685 2.45977,-12.0531 1.60419,0.3039 2.61003,2.0128 2.89199,4.9137 l 0.43235,4.4477 4.62241,-5.0439 c 3.35428,-3.6601 5.31942,-4.7765 7.16284,-4.0691 2.1608,0.8292 2.24346,1.2315 0.55324,2.6932 -1.09283,0.9449 -3.41486,3.3521 -5.16003,5.349 l -3.17297,3.631 5.00866,6.5595 c 4.95721,6.4923 4.97379,6.5595 1.6115,6.5595 -2.30586,0 -4.4713,-1.5769 -6.74089,-4.9091 l -3.34375,-4.9093 -0.70279,5.1508 c -0.67889,4.9754 -2.65444,7.1671 -4.65599,5.1656 z m 23.51118,-0.3807 c -0.32047,-0.3222 -0.58261,-6.2045 -0.58261,-13.0717 v -12.4863 l 7.74687,0.4215 c 8.8629,0.4823 11.03579,3.0161 3.1464,3.6691 -4.53132,0.375 -5.27094,0.9173 -5.27094,3.8653 0,2.873 0.68368,3.4291 4.21674,3.4291 2.31922,0 4.21676,0.6325 4.21676,1.4056 0,0.773 -1.89754,1.4056 -4.21676,1.4056 -3.74826,0 -4.21674,0.4686 -4.21674,4.2166 0,3.9826 0.31232,4.2169 5.62233,4.2169 8.54089,0 6.71545,2.4839 -2.22855,3.0325 -4.3181,0.2648 -8.11316,0.2178 -8.4335,-0.1038 z m 21.90672,-12.2982 v -13.4097 l 7.31633,0.8911 c 4.0239,0.4901 8.43912,1.9073 9.81154,3.1493 3.71748,3.3641 4.61045,10.5849 1.9463,15.737 -2.24064,4.3328 -3.64383,4.9769 -13.80324,6.3367 l -5.27093,0.7055 z m 12.65024,6.5586 c 1.54614,-1.5461 2.81117,-4.2516 2.81117,-6.0123 0,-4.3949 -3.80183,-9.449 -7.10761,-9.449 -2.42477,0 -2.73147,1.0258 -2.73147,9.1362 0,10.058 1.7342,11.6189 7.02791,6.3251 z m 26.23746,6.0909 c -0.51529,-0.5153 -0.93697,-6.6046 -0.93697,-13.5319 v -12.5947 l 7.26378,0.6979 c 4.80666,0.4619 7.8974,1.5642 9.13629,3.2587 4.28393,5.8587 0.36193,13.2679 -7.02315,13.2679 -3.35399,0 -3.75459,0.525 -3.75459,4.9196 0,4.63 -2.18272,6.4852 -4.68536,3.9825 z m 10.88427,-15.4052 c 1.01145,-2.6358 -1.42343,-6.147 -4.26271,-6.147 -1.21429,0 -1.9362,1.5722 -1.9362,4.2167 0,3.2004 0.64138,4.2168 2.66077,4.2168 1.46335,0 3.05559,-1.029 3.53814,-2.2865 z m 21.91276,14.7343 c 0,-1.0647 2.85951,-6.1986 6.35464,-11.4085 L 522.1957,1776 h -5.65198 c -4.08688,0 -5.65186,-0.5838 -5.65186,-2.1085 0,-1.6576 1.95222,-2.1083 9.13629,-2.1083 5.02496,0 9.13629,0.6023 9.13629,1.3382 0,0.7362 -2.8463,5.4099 -6.32512,10.3865 -3.47881,4.9764 -6.32512,9.4344 -6.32512,9.9064 0,0.4721 2.84631,0.8583 6.32512,0.8583 3.47882,0 6.32512,0.6324 6.32512,1.4056 0,0.773 -3.00443,1.4141 -6.67652,1.4248 -3.67208,0.014 -8.09967,0.4006 -9.83907,0.8666 -2.15912,0.5787 -3.16256,0.2334 -3.16256,-1.0883 z m 22.48931,-0.4496 c 0,-1.297 2.90183,-6.4248 6.4484,-11.395 L 544.87253,1776 h -5.74575 c -4.17021,0 -5.74559,-0.5781 -5.74559,-2.1085 0,-1.6374 1.86479,-2.1083 8.35042,-2.1083 4.59288,0 8.74695,0.6414 9.23145,1.4252 0.48437,0.7838 -2.00829,5.5578 -5.53939,10.6092 -3.53111,5.0513 -6.42014,9.4701 -6.42014,9.8196 0,0.3494 2.84629,0.6354 6.32512,0.6354 3.47881,0 6.32512,0.6324 6.32512,1.4056 0,0.773 -3.4271,1.4054 -7.61573,1.4054 -4.18878,0 -8.61636,0.3841 -9.83909,0.8533 -1.48302,0.5691 -2.22335,0.068 -2.22335,-1.5052 z m 21.94987,0.9164 c -0.38794,-0.6278 1.41065,-6.4785 3.99677,-13.0017 6.48536,-16.358 8.51418,-16.4022 14.37279,-0.3136 3.18997,8.7603 4.01168,12.5825 2.85825,13.2953 -1.9494,1.2048 -5.22693,-1.2429 -5.22693,-3.9036 0,-2.1919 -6.09222,-4.1129 -8.44039,-2.6617 -0.86472,0.5344 -2.14998,2.4916 -2.85629,4.3491 -1.28582,3.3823 -3.38057,4.3778 -4.7042,2.2362 z m 12.31585,-13.9688 c -1.26853,-5.2883 -1.40487,-5.3068 -3.10732,-0.4232 -1.33656,3.8342 -1.20206,4.2886 1.26981,4.2886 2.30403,0 2.61031,-0.6444 1.83751,-3.8654 z m 15.98387,14.1411 c -1.35287,-0.3535 -2.45977,-1.9292 -2.45977,-3.5013 0,-2.1711 0.59147,-2.615 2.45977,-1.8458 5.28317,2.1749 6.93614,2.2186 8.5898,0.2261 1.43032,-1.7237 0.71011,-2.6241 -4.315,-5.3962 -4.98462,-2.7497 -6.03178,-4.0454 -6.03178,-7.4628 0,-5.1381 5.34459,-8.6607 10.99068,-7.2438 5.39224,1.3535 4.89592,4.8736 -0.6505,4.6135 -6.22954,-0.2923 -6.51643,2.6548 -0.53468,5.4933 6.21267,2.948 8.43489,6.584 6.37586,10.4314 -2.59203,4.8433 -7.59817,6.4696 -14.42438,4.6856 z m 80.89453,-0.4533 c -3.22694,-1.2994 -7.45282,-8.0645 -7.45282,-11.9309 0,-4.2677 4.09741,-10.1513 8.27439,-11.8815 5.06446,-2.0977 12.80936,-0.7278 12.80936,2.2659 0,1.6019 -0.99292,1.8902 -4.1344,1.2003 -2.27381,-0.4995 -5.43637,-0.2112 -7.02791,0.6406 -5.67855,3.0391 -2.78136,16.9111 3.53195,16.9111 2.27466,0 2.75059,-4.9975 0.60243,-6.3252 -2.77068,-1.7123 -1.32939,-3.5139 2.81117,-3.5139 4.04386,0 4.21676,0.2525 4.21676,6.1612 0,5.2012 -0.4928,6.2932 -3.16258,7.0088 -4.14435,1.1105 -6.70448,0.9794 -10.46835,-0.5364 z m 19.25325,-11.8835 c 0,-12.2005 0.25413,-13.558 2.45977,-13.1367 2.04597,0.3906 2.52879,2.2994 2.87021,11.3476 l 0.41056,10.8781 h 4.86036 c 2.67329,0 4.86052,0.6324 4.86052,1.4056 0,0.773 -2.47833,1.4054 -5.50736,1.4054 -3.02918,0 -6.50799,0.3841 -7.7307,0.8533 -1.93311,0.7419 -2.22336,-0.9235 -2.22336,-12.7533 z m 23.89491,11.4869 c -7.8759,-3.9837 -8.93346,-16.4563 -1.86662,-22.0152 7.5962,-5.9751 16.87333,-1.2277 18.29367,9.3612 0.70194,5.2333 0.30529,6.3902 -3.49273,10.1883 -4.65797,4.6579 -7.52128,5.2037 -12.93432,2.4657 z m 8.15239,-4.0847 c 2.38104,-2.381 2.13099,-13.0616 -0.35421,-15.1243 -1.12264,-0.9316 -3.33644,-1.2826 -4.91955,-0.7802 -5.29272,1.6798 -3.44677,17.5913 2.04091,17.5913 0.85038,0 2.30516,-0.7591 3.23285,-1.6868 z m 33.51513,4.788 c -0.32441,-0.5461 1.67545,-6.5273 4.44418,-13.2918 3.32279,-8.1176 5.78607,-12.2988 7.24591,-12.2988 2.37853,0 11.9244,23.1517 10.49773,25.4601 -1.38224,2.2366 -3.44395,1.3156 -5.07667,-2.268 -2.05454,-4.5093 -10.2966,-5.0983 -11.65046,-0.8325 -0.89479,2.8193 -4.45401,4.9252 -5.46069,3.231 z m 13.12871,-11.8862 c -0.0281,-2.279 -2.73948,-6.5222 -2.76816,-4.3315 -0.0141,0.903 -0.4055,2.6424 -0.8747,3.8653 -0.55983,1.4588 -0.0773,2.2233 1.40559,2.2233 1.24226,0 2.24907,-0.7908 2.23727,-1.7571 z m 14.07733,-0.5447 c 0,-12.2226 0.20016,-13.1597 2.81116,-13.1597 2.57686,0 2.81117,0.9371 2.81117,11.2447 v 11.2447 h 5.03663 c 7.89417,0 5.00977,2.986 -3.31774,3.4345 l -7.34122,0.3955 z m 37.95074,12.5867 c -8.99658,-3.4289 -11.52986,-15.2388 -4.72796,-22.0408 3.71903,-3.719 6.88117,-4.4082 12.86755,-2.8046 5.00373,1.3404 2.78123,4.0761 -2.89944,3.5688 -5.69908,-0.5088 -8.05132,2.2011 -8.05132,9.2759 0,5.738 4.26384,9.2654 9.74462,8.0617 3.39112,-0.7449 4.31121,-0.4731 4.31121,1.2731 0,1.2211 -0.79064,2.2286 -1.75698,2.2393 -0.96634,0.014 -3.022,0.2916 -4.56814,0.6246 -1.54615,0.3331 -3.75993,0.2438 -4.91954,-0.198 z m 20.38095,-0.6633 c -4.70758,-2.5748 -6.32512,-5.6598 -6.32512,-12.0624 0,-4.6241 0.84349,-6.964 3.44999,-9.5706 7.7549,-7.7548 19.03933,-1.9973 19.03933,9.7141 0,5.2693 -0.68691,6.8421 -4.3247,9.903 -4.67918,3.9372 -7.46069,4.411 -11.8395,2.0159 z m 9.08681,-5.3125 c 3.18393,-5.9494 0.75368,-15.5538 -3.93563,-15.5538 -3.77948,0 -5.85397,2.872 -5.85397,8.1043 0,6.147 2.22349,10.1683 5.62233,10.1683 1.49175,0 3.36693,-1.2235 4.16727,-2.7188 z m 13.19589,5.7887 c -0.93499,-0.6084 -1.23283,-5.4795 -0.81074,-13.2605 0.57024,-10.5146 1.0234,-12.2988 3.12321,-12.2988 1.6398,0 3.5821,2.6072 5.84363,7.8434 l 3.3873,7.8435 3.2508,-7.8435 c 2.3365,-5.6371 4.004,-7.8434 5.9278,-7.8434 2.4456,0 2.6768,1.1622 2.6768,13.4562 0,12.0561 -0.256,13.4075 -2.4598,12.9889 -1.8728,-0.3555 -2.5651,-2.1297 -2.9006,-7.4343 l -0.4408,-6.9673 -2.653,5.9258 c -1.4593,3.259 -3.2723,5.9257 -4.0292,5.9257 -0.7568,0 -2.6524,-3.3207 -4.2121,-7.3794 l -2.83623,-7.3793 -0.073,7.9992 c -0.073,8.0349 -1.05189,10.2073 -3.79377,8.4238 z m 56.43,-0.4762 c -4.7076,-2.5748 -6.3252,-5.6598 -6.3252,-12.0624 0,-8.6072 5.0468,-13.705 12.4021,-12.5278 6.7515,1.0808 10.0991,5.3022 10.0426,12.6645 -0.048,6.2877 -1.7306,9.3523 -6.5395,11.9135 -3.7635,2.0044 -5.9325,2.0072 -9.58,0.014 z m 9.168,-5.4644 c 3.9292,-7.3418 -1.0336,-18.105 -6.7083,-14.5488 -2.9702,1.8614 -4.1194,12.4646 -1.6708,15.415 2.4031,2.8956 6.598,2.4619 8.3791,-0.8662 z m 28.0799,6.0925 c -1.1596,-0.2753 -3.6896,-2.8521 -5.6223,-5.7264 l -3.514,-5.2262 -0.4363,5.271 c -0.3417,4.1293 -1.0268,5.2708 -3.1625,5.2708 -2.4961,0 -2.7263,-1.0681 -2.7263,-12.6501 v -12.6503 h 4.828 c 8.6967,0 12.039,2.1173 12.039,7.6261 0,2.9295 -0.8634,5.3677 -2.1573,6.0918 -1.8617,1.0419 -1.6785,1.9126 1.336,6.355 3.5005,5.158 3.3539,6.5728 -0.5843,5.6383 z m -5.8354,-14.305 c 2.55,-1.6162 1.4863,-6.3383 -1.5601,-6.925 -1.8931,-0.3646 -2.4436,0.5027 -2.4436,3.8493 0,4.4896 0.8012,5.105 4.0037,3.0757 z m 19.3258,14.266 c -0.462,-0.4621 -0.8401,-5.4786 -0.8401,-11.1477 0,-10.0579 -0.086,-10.3077 -3.514,-10.3077 -2.0037,0 -3.5139,-0.8112 -3.5139,-1.8874 0,-2.5744 19.8627,-2.4494 20.7284,0.1306 0.3869,1.1533 -0.8999,1.757 -3.7444,1.757 h -4.3338 v 10.3916 c 0,7.6182 -0.5261,10.5933 -1.9711,11.1478 -1.0839,0.416 -2.349,0.3782 -2.8111,-0.085 z m 28.3167,-0.019 c -0.2894,-0.5798 -0.4849,-6.4305 -0.4343,-13.0017 l 0.091,-11.9474 8.0821,-0.4215 c 6.54397,-0.3413 8.08207,0 8.08207,1.7569 0,1.5915 -1.4625,2.1785 -5.4275,2.1785 -5.03127,0 -5.37827,0.2565 -4.75567,3.5139 0.5368,2.8078 1.5099,3.514 4.84177,3.514 4.6333,0 4.9109,3.4113 0.2976,3.6574 -5.91447,0.3154 -6.20087,0.6009 -6.20087,6.1817 0,3.9583 -0.5994,5.6224 -2.0254,5.6224 -1.1141,0 -2.2623,-0.4744 -2.5517,-1.0542 z m 27.56457,0.064 c -5.1351,-0.9751 -8.2288,-5.7243 -8.2288,-12.6323 0,-5.1592 0.7137,-6.9131 3.9436,-9.6914 9.3678,-8.058 21.0533,-0.1012 18.6517,12.7011 -1.327,7.0735 -7.1722,10.9885 -14.3665,9.6226 z m 8.1018,-7.0921 c 2.15,-5.5313 -0.018,-13.5829 -3.8034,-14.1236 -3.9104,-0.5587 -6.4475,2.7732 -6.6152,8.6874 -0.2534,8.9441 7.4856,12.9821 10.4186,5.4362 z m 16.7283,6.2767 c -3.8255,-1.9355 -7.0056,-7.1594 -7.0298,-11.5477 -0.024,-4.4769 5.1827,-11.79 9.0941,-12.7717 12.1371,-3.0462 19.8365,12.846 10.6663,22.0163 -4.4814,4.4813 -7.3869,5.0069 -12.7306,2.3031 z m 9.9394,-6.2621 c 2.2402,-5.8923 0.4253,-12.8237 -3.6237,-13.84 -1.8548,-0.4656 -4.0409,-0.4332 -4.858,0.072 -2.039,1.2601 -1.8798,13.8512 0.2013,15.9324 2.9092,2.9094 6.7312,1.9104 8.2804,-2.1641 z m 11.8524,6.9293 c -0.9944,-0.9945 -0.9076,-9.1763 0.1951,-18.3588 l 0.9065,-7.5495 7.1634,0.8304 c 11.6687,1.3527 16.4401,9.4031 11.3767,19.1951 -2.0842,4.0303 -3.001,4.3894 -15.7763,6.18 -1.7213,0.2412 -3.4607,0.1063 -3.8654,-0.2972 z m 13.32,-5.8897 c 5.4371,-5.4371 2.1063,-15.4614 -5.1374,-15.4614 -3.1197,0 -3.2961,0.489 -3.2961,9.1362 0,8.1994 0.2883,9.1364 2.8112,9.1364 1.5461,0 4.0762,-1.2651 5.6223,-2.8112 z m -735.1198,-6.9579 v -12.7203 h 4.82804 c 2.65543,0 6.36391,0.584 8.24135,1.2978 3.65227,1.3885 5.7078,6.0688 3.59379,8.1828 -0.77503,0.7751 -0.44725,2.8973 0.82719,5.3537 3.36398,6.484 0.38387,9.6551 -9.57174,10.1849 l -7.91863,0.4216 z m 12.42268,6.4236 c 0.27733,-1.4536 -0.34871,-3.1832 -1.3911,-3.8439 -3.62879,-2.2997 -5.40925,-1.2891 -5.40925,3.0704 0,3.6651 0.47382,4.2468 3.14823,3.8654 1.73927,-0.2482 3.37368,-1.6318 3.65212,-3.0919 z m -1.43173,-11.7789 c 0.34114,-2.391 -0.25033,-3.1482 -2.45976,-3.1482 -2.18793,0 -2.90886,0.8965 -2.90886,3.617 0,4.6136 4.70211,4.203 5.36862,-0.4688 z m 144.75508,10.4377 c -0.95003,-11.4548 0.13776,-18.0343 2.8955,-17.5072 1.87927,0.3591 2.37165,2.6759 2.70378,12.722 0.37374,11.3059 0.19201,12.283 -2.28576,12.283 -2.23782,0 -2.79668,-1.2643 -3.31352,-7.4978 z m 227.97809,-5.1524 v -12.6503 h 4.82803 c 9.52831,0 15.08571,4.3449 12.18557,9.527 -0.83758,1.497 -0.54719,3.3505 0.86233,5.5016 1.90934,2.9142 1.89135,3.6013 -0.17697,6.7579 -1.99199,3.0403 -3.34022,3.514 -10.00072,3.514 h -7.69824 z m 12.42268,6.4936 c 0.27733,-1.4536 -0.34872,-3.1832 -1.3911,-3.8439 -3.62879,-2.2997 -5.40925,-1.2891 -5.40925,3.0704 0,3.6651 0.47383,4.2468 3.14823,3.8654 1.73927,-0.2482 3.37368,-1.6318 3.65212,-3.0919 z m -1.56905,-9.4761 c 2.18399,-2.1837 0.6432,-5.451 -2.57053,-5.451 -1.90119,0 -2.66077,1.0032 -2.66077,3.5139 0,3.685 2.54214,4.6263 5.2313,1.9371 z m 147.97728,2.9825 v -12.6503 h 7.7307 c 5.9346,0 7.7307,0.4899 7.7307,2.1083 0,1.4727 -1.4837,2.1085 -4.9195,2.1085 -4.3105,0 -4.9196,0.4351 -4.9196,3.5139 0,3.0945 0.6012,3.514 5.0366,3.514 3.4135,0 4.8426,0.5663 4.4344,1.7569 -0.3313,0.9664 -2.5978,1.751 -5.0366,1.7436 -4.1916,-0.014 -4.4344,0.2757 -4.4344,5.2708 0,4.3475 -0.4985,5.2845 -2.8112,5.2845 -2.603,0 -2.8111,-0.937 -2.8111,-12.6502 z m -704.97564,2.6886 c -1.22664,-1.9846 1.48247,-4.6937 3.46716,-3.467 0.84054,0.5193 1.52814,1.8557 1.52814,2.9697 0,2.3666 -3.61754,2.7266 -4.9953,0.4973 z m 442.93278,0.2818 c -0.42364,-0.6855 0.11527,-1.9812 1.19742,-2.8794 2.19102,-1.8182 4.43448,0.271 2.92094,2.7201 -1.07555,1.7403 -3.09298,1.8183 -4.11836,0.1593 z m -786.52202,-71.8451 c 0,-0.9349 218.802301,-1.4056 653.59606,-1.4056 434.79362,0 653.59599,0.4707 653.59599,1.4056 0,0.9352 -218.80237,1.4056 -653.59599,1.4056 -434.793759,0 -653.59606,-0.4704 -653.59606,-1.4056 z m 653.9289,-537.2838 -0.33284,-152.8572 -203.45812,-0.2249 c -111.902,-0.1243 -201.560609,-0.4561 -199.241399,-0.7386 2.31921,-0.2824 93.717229,-0.6556 203.106749,-0.8292 l 198.88997,-0.3157 0.71474,-118.06892 c 0.39328,-64.93794 0.94188,-110.47882 1.21934,-101.20197 0.27747,9.27685 0.45949,62.24968 0.40453,117.71751 -0.0548,55.46782 0.0296,100.99898 0.18625,101.18048 0.15741,0.1815 90.73556,0.6622 201.28465,1.0684 l 200.99841,0.7384 -200.647,0.3373 c -110.35583,0.1854 -200.79243,0.4953 -200.97025,0.6886 -0.1778,0.1933 -0.66061,68.9789 -1.07274,152.8571 l -0.74932,152.5057 z m -167.82899,102.0125 c -3.45168,-0.9142 -4.37122,-4.7313 -1.81896,-7.5514 1.48246,-1.6381 1.72886,-2.7804 0.73288,-3.396 -1.02637,-0.6344 -1.05406,-1.7626 -0.0871,-3.5683 0.94427,-1.7642 0.94553,-2.9294 0,-3.5115 -2.19032,-1.3536 -1.65915,-8.5872 0.77898,-10.6107 2.90491,-2.4107 17.75827,-2.639 18.54356,-0.2848 0.32231,0.9663 -0.28223,1.7569 -1.34345,1.7569 -1.18139,0 -1.90808,1.4988 -1.87421,3.8653 0.0464,3.2061 -1.0234,4.395 -6.2696,6.97 l -6.32512,3.1047 5.75586,0.058 c 7.25563,0.073 11.44749,3.9233 9.0826,8.3423 -2.71193,5.0672 -9.28964,6.915 -17.17861,4.8255 z m 12.17924,-6.0822 c 0,-3.2935 -9.65242,-2.8775 -10.29211,0.4435 -0.41689,2.1647 0.32639,2.4847 4.9003,2.1084 3.65859,-0.3007 5.39181,-1.1211 5.39181,-2.5519 z m -2.81116,-16.8862 c 0,-2.5561 -0.85123,-3.6155 -3.16889,-3.9446 -3.82403,-0.5431 -5.64299,3.0759 -3.09144,6.1506 2.6335,3.1731 6.26033,1.8952 6.26033,-2.206 z m -251.599369,12.7464 c -7.7262,-3.1623 -11.04984,-13.1894 -7.11815,-21.4747 2.86078,-6.0288 7.70836,-8.7772 14.96988,-8.4876 6.50574,0.2593 8.31248,1.1539 8.31248,4.1156 0,1.5649 -0.69057,1.859 -2.45977,1.0474 -3.98792,-1.8296 -11.54264,-1.2339 -13.87001,1.0935 -1.18715,1.1871 -2.50307,4.7274 -2.92418,7.8672 -0.64798,4.8315 -0.20915,6.2656 2.85502,9.3298 2.30558,2.3054 5.17592,3.6207 7.90149,3.6207 3.81924,0 4.28069,-0.4544 4.28069,-4.2166 0,-2.3193 -0.6325,-4.2169 -1.40557,-4.2169 -0.77308,0 -1.40558,-0.6325 -1.40558,-1.4056 0,-0.773 1.89753,-1.4056 4.21674,-1.4056 4.10796,0 4.21675,0.1768 4.21675,6.8441 0,6.8167 -0.0211,6.8475 -5.27093,7.7153 -6.60962,1.0925 -8.77056,1.0175 -12.29886,-0.4266 z m 25.236539,-2.1213 c -5.36061,-5.3608 -3.76808,-14.3511 3.09622,-17.4786 4.95384,-2.2572 6.88946,-1.9592 11.16567,1.7191 5.12082,4.4047 5.05982,11.5771 -0.13634,16.0469 -4.78222,4.1138 -9.82672,4.0111 -14.12541,-0.2874 z m 12.28268,-4.5876 c 1.01385,-4.0795 -0.91235,-9.4817 -3.563,-9.9922 -5.86493,-1.1295 -9.02132,8.3271 -4.34143,13.0071 2.60497,2.605 6.91631,0.9605 7.90443,-3.0149 z m 12.45164,6.7068 c -1.32406,-0.8377 -2.24106,-4.5147 -2.62351,-10.5204 -0.55072,-8.6499 -0.40018,-9.2325 2.38709,-9.2325 2.69886,0 2.97492,0.7824 2.97492,8.4334 0,8.6693 0.80667,9.6539 6.21015,7.5806 1.64706,-0.6322 2.22335,-2.818 2.22335,-8.4337 0,-6.5423 0.37009,-7.5803 2.70321,-7.5803 2.42169,0 2.68734,1.0143 2.55185,9.7429 -0.12654,8.1558 -0.56716,9.8517 -2.70323,10.4103 -1.40348,0.3671 -2.55183,0.072 -2.55183,-0.6562 0,-0.782 -1.11196,-0.7283 -2.71883,0.1322 -3.32658,1.7804 -5.77835,1.8163 -8.45317,0.1242 z m 37.43882,0.4231 c -0.53158,-0.5314 -0.96633,-5.2631 -0.96633,-10.5146 0,-9.4663 0.0337,-9.5486 3.86536,-9.6016 7.85552,-0.1089 11.65706,-0.1076 14.05582,0 1.35287,0.064 4.09925,-0.296 6.10318,-0.7992 5.73253,-1.4393 8.30404,2.2285 8.30404,11.8445 0,8.7275 -0.59427,10.1961 -3.65141,9.0228 -1.35569,-0.5202 -1.97092,-3.1362 -1.97092,-8.3807 0,-5.6259 -0.5774,-7.846 -2.20296,-8.4697 -3.32309,-1.2752 -4.57279,0.9125 -4.94921,8.6641 -0.40902,8.419 -0.75606,9.2497 -3.43481,8.2218 -1.45717,-0.5592 -2.06326,-2.9941 -2.06326,-8.289 0,-7.9827 -1.18912,-9.7733 -5.56696,-8.3838 -2.20297,0.6993 -2.81173,2.3929 -3.15004,8.7647 -0.38809,7.308 -2.02193,10.2655 -4.3725,7.9149 z m 40.2469,-0.7631 c -1.6843,-0.8143 -3.85269,-3.3883 -4.81848,-5.72 -2.1847,-5.2743 0.31683,-10.6019 6.33655,-13.4955 3.54164,-1.7024 4.37979,-1.6091 7.67953,0.8544 4.57784,3.4179 5.18549,9.6583 0.89298,9.171 -1.54615,-0.1756 -4.54651,0.032 -6.66739,0.461 -3.34869,0.6775 -3.65891,1.1486 -2.3573,3.5806 1.12544,2.1032 2.67932,2.6987 6.2405,2.3919 6.13945,-0.529 7.74954,1.1342 2.88763,2.9826 -4.5822,1.7421 -6.19721,1.7062 -10.19402,-0.226 z m 7.9822,-13.8346 c 0,-2.6364 -4.3947,-3.1916 -6.73542,-0.8509 -2.13033,2.1304 -1.96629,2.3004 2.21745,2.3004 2.48479,0 4.51797,-0.6522 4.51797,-1.4495 z m 12.04781,13.2967 c -1.4001,-1.4001 -2.20874,-4.702 -2.20874,-9.0192 0,-4.1174 -0.69477,-7.1023 -1.75697,-7.5487 -1.25828,-0.5287 -1.05869,-1.1804 0.70279,-2.2954 1.35288,-0.8563 2.45977,-2.4743 2.45977,-3.5955 0,-1.1211 0.94877,-2.0385 2.10837,-2.0385 1.17128,0 2.10838,1.2493 2.10838,2.8112 0,1.8741 0.93695,2.8111 2.81116,2.8111 1.54614,0 2.81117,0.6325 2.81117,1.4056 0,0.773 -1.26503,1.4056 -2.81117,1.4056 -2.43643,0 -2.81116,0.9371 -2.81116,7.0278 0,6.0197 0.39131,7.0279 2.7281,7.0279 3.99353,0 4.78474,2.3532 1.12137,3.3351 -4.46273,1.1962 -4.80189,1.1342 -7.26307,-1.327 z m 54.93523,-0.3617 c -1.589,-1.7559 -2.32623,-5.0969 -2.32623,-10.5418 0,-7.0344 0.33045,-7.9715 2.81117,-7.9715 2.46665,0 2.81115,0.9371 2.81115,7.6477 0,8.1597 1.17128,9.9293 5.63485,8.5125 2.34198,-0.7432 2.79865,-2.1341 2.79865,-8.5241 0,-6.699 0.34494,-7.6361 2.81117,-7.6361 2.54115,0 2.81117,0.9371 2.81117,9.7561 0,9.7708 -1.41402,12.8315 -4.67694,10.1235 -1.09664,-0.9102 -2.50657,-0.963 -3.80378,-0.1425 -3.19588,2.0213 -6.32527,1.5895 -8.87121,-1.2238 z m 64.13226,0.8749 c -1.71481,-0.8279 -3.84245,-3.7006 -4.72796,-6.3837 -1.38576,-4.1991 -1.2334,-5.3828 1.09509,-8.5014 3.86226,-5.173 9.4673,-6.7544 13.82362,-3.9 2.0686,1.3554 3.46898,3.614 3.46898,5.5948 0,2.866 -0.87975,3.4539 -6.40918,4.283 -4.97112,0.7456 -6.30572,1.4909 -5.94814,3.3223 0.31485,1.6124 2.01266,2.434 5.35498,2.5914 7.70457,0.3626 7.86017,0.4445 4.97662,2.6254 -3.1523,2.3844 -7.19308,2.5123 -11.63401,0.3682 z m 8.51713,-14.543 c -0.96662,-2.5192 -6.29785,-2.2023 -7.16327,0.4257 -0.37825,1.1482 0.90772,1.7569 3.71101,1.7569 3.3006,0 4.09671,-0.5032 3.45226,-2.1826 z m 11.11632,15.2291 c -1.17604,-0.422 -1.75697,-3.8523 -1.75697,-10.3747 v -9.7442 l 3.86535,0.2208 c 2.12595,0.1217 4.73499,-0.027 5.79804,-0.329 3.6129,-1.0281 3.23438,2.9395 -0.41297,4.326 -3.2282,1.2276 -3.62808,2.149 -3.62808,8.3594 0,7.1395 -0.77449,8.6504 -3.86537,7.5417 z m 14.75863,0.041 c -4.29012,-1.1211 -2.65107,-3.4789 2.08701,-3.0024 6.26805,0.6304 6.72698,-3.0956 0.72261,-5.8678 -8.47932,-3.9149 -4.13522,-13.3871 5.31141,-11.5812 1.91118,0.3654 3.47503,1.5235 3.47503,2.5736 0,1.3719 -1.18701,1.672 -4.21675,1.0661 -5.89698,-1.1793 -5.64355,2.5895 0.3514,5.2282 10.24754,4.5103 3.55808,14.5337 -7.73071,11.5835 z m 180.84623,-0.3195 c -0.31921,-0.3221 -0.58022,-7.1216 -0.58022,-15.1101 v -14.5243 h 9.11408 c 8.01828,0 9.64904,0.4781 13.56386,3.976 3.71299,3.3175 4.47313,5.0479 4.59036,10.4488 0.11527,5.3146 -0.57897,7.2242 -3.87941,10.6697 -3.51635,3.6708 -5.16059,4.2547 -13.12421,4.6611 -5.00739,0.2553 -9.36539,0.2008 -9.68446,-0.1204 z m 17.69235,-5.7396 c 2.70124,-2.7012 3.4687,-5.9273 2.84237,-11.9473 -0.5032,-4.8356 -4.28113,-7.7307 -10.08816,-7.7307 h -5.40446 v 11.2445 11.2447 h 4.91954 c 3.04534,0 5.99045,-1.0709 7.73071,-2.8112 z m 16.35367,4.1149 c -6.58839,-5.1825 -4.04204,-16.7225 4.14324,-18.777 4.86571,-1.2211 10.42591,2.394 10.42591,6.7788 0,2.7943 -0.87428,3.4137 -5.73843,4.0662 -6.73725,0.9037 -7.56204,1.5009 -6.36842,4.6114 0.65824,1.7156 2.17078,2.1718 5.79592,1.7486 5.08934,-0.5941 6.98941,1.979 2.68199,3.632 -3.95531,1.5178 -7.15849,0.9146 -10.94021,-2.06 z m 9.42654,-13.3254 c -0.96662,-2.5192 -6.29785,-2.2023 -7.16327,0.4256 -0.37824,1.1483 0.90773,1.757 3.71102,1.757 3.30059,0 4.09671,-0.5032 3.45225,-2.1826 z m 11.11634,15.3077 c -1.26165,-0.5091 -1.75699,-5.2336 -1.75699,-16.7561 0,-15.11 0.16418,-16.047 2.81117,-16.047 2.65501,0 2.81117,0.937 2.81117,16.8668 0,9.2769 -0.47439,16.8172 -1.05419,16.7562 -0.5798,-0.06 -1.84483,-0.4301 -2.81116,-0.8199 z m 9.48768,-9.3575 c 0,-8.1468 0.48353,-10.6802 2.1615,-11.3241 2.98125,-1.144 3.67533,1.4535 3.18168,11.9072 -0.34113,7.2273 -0.90253,9.0654 -2.88341,9.4428 -2.16488,0.4124 -2.45977,-0.7897 -2.45977,-10.0259 z m 13.75968,8.372 c -1.32253,-1.0046 -3.06839,-3.573 -3.87998,-5.7072 -2.89072,-7.6033 5.11182,-16.0956 13.24396,-14.0545 5.62431,1.4115 4.4207,4.4544 -1.68852,4.2685 l -5.27093,-0.1603 v 6.3251 6.3252 h 5.27177 c 5.79437,0 7.19012,2.6715 2.10753,4.0336 -4.69281,1.2576 -7.10704,1.0034 -9.78383,-1.0304 z m 18.92012,0.9067 c -1.17549,-0.4216 -1.75698,-3.8478 -1.75698,-10.3521 0,-8.7849 0.27086,-9.7221 2.81116,-9.7221 2.54117,0 2.81117,0.9372 2.81117,9.7561 0,9.8095 -0.62591,11.4801 -3.86535,10.3181 z m 11.92525,-1.7938 c -6.1729,-4.8555 -5.17157,-13.9832 1.93731,-17.6593 4.88806,-2.5278 10.36379,-1.4252 13.22766,2.6635 7.14008,10.194 -5.44663,22.6403 -15.16497,14.9958 z m 10.91548,-8.4221 c 0,-4.952 -0.54256,-6.4103 -2.52738,-6.7924 -3.82938,-0.7375 -6.60891,2.3805 -6.60891,7.4139 0,5.545 0.99431,6.634 5.56962,6.1003 3.22666,-0.3762 3.56667,-1.0169 3.56667,-6.7218 z m 12.7506,9.0168 c -1.51129,-1.5112 -2.20874,-4.8404 -2.20874,-10.542 0,-7.3959 0.31613,-8.3331 2.81117,-8.3331 2.50236,0 2.81117,0.9372 2.81117,8.5314 0,7.9989 0.19368,8.5031 3.10521,8.082 2.36195,-0.3417 3.38618,-1.7953 4.27818,-6.0715 0.64515,-3.0924 0.88818,-6.7292 0.5403,-8.0821 -0.43812,-1.7036 0.19102,-2.4598 2.04695,-2.4598 2.3975,0 2.6796,1.1097 2.6796,10.5419 0,8.4335 -0.42167,10.5419 -2.10837,10.5419 -1.15961,0 -2.10837,-0.6548 -2.10837,-1.455 0,-1.003 -0.84476,-1.003 -2.71883,0 -3.81334,2.0408 -6.56056,1.8139 -9.12827,-0.7537 z m 22.74037,1.2398 c -4.27579,-1.1173 -2.66218,-3.2479 2.45976,-3.2479 5.83514,0 6.90141,-3.6657 1.46322,-5.0306 -4.63365,-1.163 -6.81286,-4.0503 -5.70091,-7.5536 1.22117,-3.8477 5.48402,-5.9582 9.83106,-4.8672 5.28247,1.3259 4.65362,4.9531 -0.67383,3.8876 -5.89698,-1.1793 -5.64355,2.5895 0.3514,5.2282 10.24754,4.5103 3.55808,14.5337 -7.7307,11.5835 z m 29.86863,-14.3285 v -15.6254 h 9.24437 c 8.3434,0 9.64483,0.4004 13.35305,4.1087 3.36398,3.3639 4.10865,5.2941 4.10865,10.6499 0,9.0638 -5.50215,14.75 -14.29914,14.7778 -3.345,0.014 -7.50497,0.4006 -9.24437,0.8667 -3.14091,0.8418 -3.16256,0.7404 -3.16256,-14.7777 z m 17.38017,8.1676 c 2.84518,-2.2382 3.70358,-4.1566 3.70358,-8.278 0,-6.8221 -3.43258,-10.893 -10.19049,-12.0861 l -5.27094,-0.9306 v 12.1038 12.1039 h 4.02715 c 2.21491,0 5.69373,-1.3108 7.7307,-2.913 z m 17.52298,4.9806 c -10.61103,-5.7627 -2.28225,-23.3658 9.02187,-19.0679 3.79915,1.4444 6.39737,7.0116 4.61692,9.8925 -0.50489,0.8171 -3.74925,1.4855 -7.20966,1.4855 -5.85608,0 -6.18752,0.1947 -4.78713,2.8111 1.06009,1.9809 2.94301,2.8112 6.37446,2.8112 5.47938,0 6.52513,2.0398 1.70764,3.3309 -4.42111,1.1848 -5.46616,1.0491 -9.7241,-1.2633 z m 8.66991,-14.015 c -0.9624,-1.1596 -2.54368,-2.1085 -3.51395,-2.1085 -0.97027,0 -2.55156,0.9489 -3.51396,2.1085 -1.50242,1.8103 -1.00555,2.1083 3.51396,2.1083 4.51951,0 5.01624,-0.298 3.51395,-2.1083 z m 10.89328,15.1953 c -4.27579,-1.1173 -2.66218,-3.2479 2.45977,-3.2479 6.23909,0 6.3989,-2.7983 0.32089,-5.6223 -8.35914,-3.8839 -6.15631,-11.2447 3.3651,-11.2447 3.86662,0 5.4503,0.6025 5.4503,2.0733 0,1.5539 -1.05616,1.862 -4.21676,1.2299 -5.69893,-1.1397 -5.80871,2.8948 -0.13212,4.8735 10.87008,3.7893 4.12032,14.9088 -7.24662,11.9382 z m 18.27257,0 c -4.27578,-1.1173 -2.66218,-3.2479 2.45977,-3.2479 2.70574,0 4.91954,-0.5699 4.91954,-1.2668 0,-0.6967 -2.2138,-2.5728 -4.91954,-4.1692 -3.5841,-2.1147 -4.91954,-3.8787 -4.91954,-6.4987 0,-4.4707 5.27023,-6.9365 10.54188,-4.9323 5.38829,2.0487 4.37852,4.5064 -1.40559,3.4214 -3.33011,-0.6249 -4.91955,-0.3951 -4.91955,0.7108 0,0.8986 2.2138,2.5586 4.91955,3.6891 4.07815,1.7041 4.91954,2.7795 4.91954,6.2883 0,3.2501 -0.83703,4.5508 -3.60546,5.6035 -3.76668,1.4319 -4.00311,1.4439 -7.9906,0.4018 z m 18.23477,-1.8466 c -6.4817,-5.0985 -4.84954,-14.9339 3.01904,-18.1932 4.95427,-2.0521 9.52986,-0.2021 11.34025,4.585 1.66197,4.3947 0.70434,5.179 -6.32246,5.179 -4.36488,0 -6.24205,0.5824 -6.24205,1.9364 0,3.0958 3.89909,5.48 7.75616,4.7426 1.95558,-0.3737 3.92002,-0.09 4.36559,0.6311 1.11181,1.7989 0.56504,2.1402 -5.13164,3.2041 -3.87576,0.7237 -5.79241,0.2688 -8.78489,-2.085 z m 9.87688,-12.9974 c -0.32215,-0.9663 -2.06156,-1.7569 -3.86535,-1.7569 -1.80392,0 -3.54333,0.7906 -3.86534,1.7569 -0.3864,1.1591 0.92922,1.757 3.86534,1.757 2.93612,0 4.25161,-0.5979 3.86535,-1.757 z m 10.76157,14.7371 c -0.8456,-0.5679 -1.66955,-4.9928 -1.83134,-9.8331 -0.236,-7.0679 0.16376,-8.9761 2.03064,-9.6925 1.2784,-0.4906 2.81403,-0.1 3.41253,0.8686 0.7718,1.2487 1.3675,1.3082 2.0495,0.2047 1.2083,-1.9552 5.0123,-2.0463 5.0123,-0.1203 0,0.7897 -1.5813,2.1561 -3.514,3.0367 -3.1095,1.4169 -3.5139,2.4646 -3.5139,9.1063 0,7.3927 -0.6101,8.4684 -3.64573,6.4292 z m 16.57703,-0.6109 c -0.9277,-0.9278 -1.6867,-4.9864 -1.6867,-9.0192 0,-4.4916 -0.6807,-7.65 -1.757,-8.1523 -1.4055,-0.6559 -1.4055,-0.9839 0,-1.6399 0.9664,-0.4509 1.757,-2.0322 1.757,-3.5139 0,-1.7571 0.9777,-2.694 2.8112,-2.694 1.874,0 2.8112,0.9369 2.8112,2.8112 0,1.8741 0.9369,2.811 2.8111,2.811 1.5462,0 2.8112,0.6326 2.8112,1.4056 0,0.7731 -1.265,1.4055 -2.8112,1.4055 -2.4364,0 -2.8111,0.9371 -2.8111,7.028 0,6.0909 0.3747,7.0279 2.8111,7.0279 3.3512,0 3.7285,2.1584 0.5878,3.3637 -3.3368,1.2804 -5.4622,1.0388 -7.3346,-0.8336 z m 14.1261,0.7559 c -3.4734,-1.4016 -1.6598,-3.286 3.1626,-3.286 6.2391,0 6.3989,-2.7983 0.3209,-5.6223 -8.4477,-3.9252 -4.0863,-13.3832 5.3404,-11.5812 1.9111,0.3654 3.475,1.5235 3.475,2.5736 0,1.354 -1.1769,1.674 -4.0464,1.1001 -6.074,-1.2147 -6.9065,1.9633 -1.1449,4.3707 5.4713,2.2859 7.2306,5.3486 5.2253,9.0956 -2.0439,3.8187 -7.4984,5.3003 -12.3329,3.3495 z m -737.37302,-9.9617 c 0.19412,-8.9108 0.40805,-9.4995 3.51397,-9.6715 1.81896,-0.1012 4.21844,-0.4169 5.33221,-0.7028 3.39154,-0.8705 3.18815,3.605 -0.23205,5.1053 -2.57404,1.1291 -3.28204,2.7064 -3.62683,8.0793 -0.33186,5.1707 -0.96591,6.6769 -2.81117,6.6775 -2.02517,7e-4 -2.35182,-1.4235 -2.17613,-9.4878 z m 101.69818,-5.2717 v -14.7588 h 8.33299 c 5.70147,0 9.03073,0.6975 10.54187,2.2088 2.61916,2.6191 2.88791,7.7945 0.52738,10.155 -1.30481,1.3048 -1.19137,2.0761 0.50643,3.4438 3.65663,2.9451 3.98694,6.3017 0.99445,10.106 -2.51712,3.2 -3.84652,3.6036 -11.86888,3.6036 h -9.03424 z m 15.18029,10.2607 c 4.13607,-4.136 1.10184,-8.1524 -6.15899,-8.1524 -2.9475,0 -3.39897,0.6536 -3.39897,4.9196 0,4.451 0.37472,4.9195 3.93562,4.9195 2.16461,0 4.69465,-0.7589 5.62234,-1.6867 z m 0.0225,-16.9372 c 0.35294,-3.0677 -0.13071,-3.8653 -2.34479,-3.8653 -1.53434,0 -3.79016,-0.384 -5.01287,-0.8531 -1.77863,-0.6825 -2.22335,0.1789 -2.22335,4.3057 0,4.9737 0.16402,5.1431 4.56814,4.7186 3.80632,-0.3671 4.64221,-1.0851 5.01287,-4.3059 z m 36.80322,11.4321 c 0,-9.5603 0.13494,-9.9678 3.0383,-9.2083 1.67124,0.437 4.2013,0.1722 5.62233,-0.5884 2.09095,-1.119 2.58403,-0.8682 2.58403,1.3138 0,1.5146 -1.23228,3.0189 -2.81116,3.4318 -2.63492,0.6891 -3.52,4.3797 -3.18884,13.2971 0.0365,0.9664 -1.12953,1.757 -2.58966,1.757 -2.35435,0 -2.655,-1.1332 -2.655,-10.003 z m 320.47289,-16.703 c 0,-1.5618 0.93697,-2.8111 2.10838,-2.8111 1.17126,0 2.10837,1.2493 2.10837,2.8111 0,1.5618 -0.93711,2.8112 -2.10837,2.8112 -1.17141,0 -2.10838,-1.2494 -2.10838,-2.8112 z m 31.88917,1.9034 c -1.93114,-1.9311 -0.92952,-4.9135 1.49342,-4.447 1.35287,0.2605 2.45977,1.3611 2.45977,2.4457 0,2.2193 -2.47987,3.4746 -3.95319,2.0013 z m -475.42861,-41.185 c -11.4881,-1.0641 -22.23323,-5.8279 -26.55511,-11.7732 -2.33102,-3.2067 -2.9059,-6.2135 -2.99741,-15.6782 -0.10118,-10.5524 -0.48422,-12.1516 -3.86535,-16.1698 -2.06368,-2.4524 -3.75207,-5.9036 -3.75207,-7.6691 0,-3.4162 6.07845,-13.3944 9.29766,-15.2627 1.60363,-0.9306 1.5436,-1.7043 -0.35716,-4.6053 -1.66885,-2.5469 -2.05131,-5.1879 -1.41936,-9.7989 1.17492,-8.5719 3.54979,-12.7163 12.3018,-21.4684 32.57789,-32.5779 108.13138,-26.6725 129.22243,10.1004 4.34648,7.5782 5.49794,16.8507 2.734,22.0154 -1.19236,2.2278 -0.74061,3.0265 2.72585,4.819 4.82522,2.4952 8.54242,7.29 8.54242,11.0192 0,1.4335 -1.97442,4.5807 -4.38753,6.9939 l -4.38738,4.3874 0.94567,11.6543 c 0.80808,9.9593 0.53427,12.584 -1.88291,18.0485 -3.90878,8.8364 -10.3129,11.5 -31.96281,13.2938 -18.16295,1.5047 -68.36463,1.5607 -84.20274,0.093 z m 103.63098,-8.9683 c 5.70836,-2.84 6.69395,-4.4494 8.17164,-13.3424 l 1.00878,-6.0716 -13.49639,0.7744 c -34.78242,1.9959 -53.72602,2.1996 -81.66721,0.8784 -16.62102,-0.786 -32.97948,-1.8444 -36.35217,-2.3522 l -6.13214,-0.923 0.9409,6.1801 c 1.40348,9.2189 3.42794,12.2222 9.78666,14.5187 9.34458,3.3747 9.28864,3.3719 61.97681,3.1342 45.90689,-0.2071 51.07986,-0.4666 55.76312,-2.7966 z m -70.78431,-22.7605 c -2.09839,-2.0984 -24.40755,-4.8734 -38.16329,-4.7473 -20.58097,0.1888 -13.5983,2.259 13.12533,3.8914 10.43646,0.6375 20.50397,1.2554 22.37213,1.373 1.86831,0.1179 3.06783,-0.1152 2.66583,-0.5171 z m 43.13284,-5.0625 c 4.85362,-1.4984 12.72573,-2.6113 18.54555,-2.6218 8.5926,-0.015 10.69325,-0.5179 13.97936,-3.3446 l 3.86746,-3.3266 -6.66597,-2.9486 c -14.77437,-6.5353 -24.21229,-6.7753 -53.53359,-1.3608 -17.74731,3.2772 -22.27933,2.9268 -41.41384,-3.2026 -16.83637,-5.3931 -23.00743,-4.8913 -31.23262,2.5396 -3.65888,3.3054 -5.09904,5.512 -4.1906,6.4204 0.76125,0.7613 11.38366,1.8871 23.60521,2.5018 16.74078,0.842 25.34126,1.9828 34.87155,4.6256 6.95764,1.9294 14.23154,3.7811 16.16421,4.1148 5.44903,0.9405 16.7232,-0.5324 26.00328,-3.3972 z m 18.62398,3.3813 c -2.12595,-0.322 -5.60476,-0.322 -7.73071,0 -2.12595,0.3221 -0.38654,0.5855 3.86535,0.5855 4.25188,0 5.9913,-0.2634 3.86536,-0.5855 z m -119.5502,-21.0035 c 1.136,-1.7337 4.91195,-4.5301 8.39092,-6.2144 7.83527,-3.7929 14.5385,-3.2214 33.5164,2.8579 15.88663,5.0888 17.41998,5.1462 35.32063,1.3228 7.73718,-1.6525 19.75759,-3.0495 27.21223,-3.1625 11.53871,-0.1749 14.89609,0.3557 24.70973,3.9052 12.33216,4.4604 17.25114,4.2732 14.66542,-0.5583 -0.82929,-1.5495 -3.54473,-3.861 -6.03431,-5.1365 -2.48956,-1.2754 -4.97617,-3.0189 -5.5259,-3.8744 -0.69745,-1.0851 -19.72019,-1.7099 -62.91797,-2.0667 l -61.91834,-0.5116 -6.30306,5.165 c -6.94077,5.6874 -9.10058,10.7568 -6.11667,14.3567 1.75979,2.1231 1.95502,2.098 2.42477,-0.3111 0.28098,-1.4411 1.4403,-4.0385 2.57615,-5.7721 z m 135.10578,-23.3285 c 1.21695,-10.5805 -13.02849,-26.2336 -30.4899,-33.5028 -19.26282,-8.0192 -51.43366,-8.6335 -70.60653,-1.3484 -18.11277,6.8823 -31.15362,19.9282 -32.3918,32.4042 l -0.48774,4.9155 7.7307,0.8326 c 4.2519,0.458 34.29623,0.7742 66.76522,0.7028 l 59.03448,-0.1297 z m -107.7052,-13.3443 c 0.26059,-1.3529 1.40515,-2.4598 2.54369,-2.4598 1.13837,0 2.28294,1.1069 2.54353,2.4598 0.33243,1.7259 -0.42659,2.4597 -2.54353,2.4597 -2.1171,0 -2.87597,-0.7338 -2.54369,-2.4597 z m 38.15527,0.2569 c -1.17154,-3.0529 1.80252,-5.9238 3.93127,-3.7951 1.79929,1.7992 0.68467,5.9979 -1.5921,5.9979 -0.8217,0 -1.8742,-0.9913 -2.33917,-2.2028 z m 38.10578,0.6748 c -1.22666,-1.9848 1.48247,-4.6938 3.46714,-3.4672 2.22941,1.3778 1.86915,4.9952 -0.49729,4.9952 -1.11406,0 -2.45035,-0.6876 -2.96985,-1.528 z m -59.03451,-12.6502 c -1.32251,-2.1401 1.54952,-4.6385 4.1743,-3.6314 1.26277,0.4847 1.83034,1.7452 1.34963,2.9978 -0.9593,2.4999 -4.14463,2.8653 -5.52393,0.6336 z m 43.9124,-0.7853 c -1.93112,-1.9311 -0.92951,-4.9137 1.49344,-4.447 1.35287,0.2605 2.45977,1.3611 2.45977,2.4457 0,2.2191 -2.47988,3.4746 -3.95321,2.0013 z m 445.30622,102.2825 c -19.80607,-3.6359 -29.98038,-7.1634 -35.39805,-12.273 l -4.66106,-4.396 v -25.1731 c 0,-19.4705 0.45204,-25.8187 1.99579,-28.0227 1.09776,-1.5671 7.02974,-5.2117 13.18226,-8.0988 10.65277,-4.9991 11.22751,-5.5068 12.04879,-10.6428 0.64769,-4.0503 2.35266,-6.6607 6.8473,-10.4836 7.4905,-6.371 9.44776,-8.1988 13.20686,-12.3328 1.65296,-1.8178 7.92551,-5.8351 13.9393,-8.9274 7.5359,-3.875 11.77781,-7.042 13.6492,-10.1904 1.49328,-2.5125 3.51367,-4.5682 4.48956,-4.5682 1.70625,0 8.45684,6.2459 19.18565,17.7514 2.79051,2.9925 7.05997,6.912 9.48768,8.7103 2.42787,1.7981 4.41424,4.179 4.41424,5.2907 0,1.1117 1.94687,3.7609 4.32652,5.887 2.44938,2.1885 4.7565,5.9685 5.3176,8.7119 0.85924,4.2009 1.69626,4.9926 6.28774,5.9466 9.22076,1.9158 20.65911,8.1562 23.58526,12.8674 2.48422,3.9998 2.70279,6.6587 2.34366,28.5139 -0.35842,21.8115 -0.66343,24.3978 -3.20725,27.207 -4.26243,4.7068 -12.38783,8.3439 -27.27703,12.2099 -18.79657,4.8806 -62.42995,5.929 -83.76402,2.0127 z m 80.35437,-6.991 c 13.96024,-3.2242 18.74653,-4.9715 24.71281,-9.0217 l 3.86521,-2.6239 -0.35126,-16.6149 -0.35125,-16.6148 -5.16875,2.631 c -6.12596,3.1183 -6.71503,4.6647 -6.47608,17.0008 0.11386,5.8792 -0.5001,10.2249 -1.63807,11.5962 -2.55943,3.0838 -7.97119,2.7255 -11.45536,-0.7587 -2.14675,-2.1468 -3.37339,-2.5301 -4.49786,-1.4057 -2.87723,2.8772 -6.35253,1.5683 -10.82299,-4.0761 -3.60209,-4.5479 -5.34993,-5.6224 -9.14654,-5.6224 -6.71082,0 -12.62903,5.5127 -15.51132,14.4487 -3.33418,10.3372 -5.72241,13.6629 -9.81139,13.6629 -4.14857,0 -4.73246,-3.5617 -0.75424,-4.602 1.86283,-0.4872 3.42344,-3.1007 4.92362,-8.246 3.02776,-10.3839 7.04421,-16.471 12.40638,-18.802 4.38612,-1.9068 4.14857,-1.9758 -6.99193,-2.029 l -11.53239,-0.055 -0.95438,5.271 c -2.05329,11.341 -6.31037,15.8128 -15.0531,15.8128 -7.01976,0 -11.73014,-5.2576 -12.96974,-14.4765 -1.17576,-8.7434 -4.51135,-14.9718 -8.38401,-15.6545 -15.93875,-2.81 -21.56066,-4.1335 -24.90538,-5.8632 l -3.92312,-2.0286 v 17.4908 c 0,9.6201 0.39285,18.5149 0.87299,19.7663 1.24381,3.2411 6.76916,5.7674 20.00848,9.1476 17.40168,4.443 29.38287,5.5174 56.42557,5.0595 18.90904,-0.32 27.57782,-1.1046 37.4841,-3.3925 z m -97.67917,-9.0853 c -1.68093,-1.7891 -3.05615,-4.8415 -3.05615,-6.7828 0,-4.2913 5.35092,-9.6421 9.64216,-9.6421 3.95601,0 10.036,5.9607 10.036,9.839 0,3.9617 -6.11274,9.8391 -10.23307,9.8391 -1.83302,0 -4.70799,-1.4638 -6.38894,-3.2532 z m 10.29689,-6.5859 c 0,-2.576 -0.84588,-3.634 -3.16889,-3.9638 -3.45365,-0.4905 -5.41529,2.5238 -4.01575,6.1708 0.50797,1.3238 2.11498,2.0269 4.01575,1.757 2.32301,-0.3299 3.16889,-1.3879 3.16889,-3.964 z m -19.40098,-16.5155 c -0.32525,-0.5798 -1.01062,-2.8075 -1.52295,-4.9504 -1.24914,-5.224 2.47396,-6.745 6.5451,-2.6738 2.87892,2.8788 2.88861,3.0323 0.36784,5.8176 -2.71855,3.0038 -4.40172,3.5681 -5.38999,1.8066 z m 13.19434,-0.7951 c -2.20662,-2.2065 -1.8905,-3.4781 1.2871,-5.1786 3.80547,-2.0368 9.37369,0.6874 7.0726,3.46 -2.17513,2.6209 -6.55661,3.5216 -8.3597,1.7186 z m 32.88024,17.0697 c 3.51931,-1.6036 3.93985,-2.5208 5.52703,-12.0579 0.70224,-4.2196 0.46807,-4.5693 -3.06992,-4.5836 -2.10669,-0.013 -6.20214,-0.4076 -9.10116,-0.8867 l -5.27093,-0.8713 v 6.573 c 0,5.1045 0.77068,7.3436 3.45,10.023 3.99986,3.9997 3.75783,3.9483 8.46498,1.8035 z m 71.7172,-11.9373 c 0,-8.6236 -0.30403,-9.8538 -2.18751,-8.8538 -1.20304,0.6387 -7.37003,1.9768 -13.70444,2.9735 -11.44636,1.8011 -13.87942,3.0635 -8.93078,4.634 1.4223,0.4515 3.42202,2.3828 4.4436,4.2919 1.62092,3.0286 2.52822,3.3637 7.11886,2.6296 4.44066,-0.71 5.5162,-0.3649 6.89579,2.213 0.91461,1.7087 2.67623,2.85 3.99945,2.5906 1.95165,-0.3824 2.36503,-2.2141 2.36503,-10.4788 z m -18.51954,-11.0102 c 22.80783,-3.9773 35.35406,-10.7257 34.42301,-18.5155 -0.55422,-4.6371 -5.14781,-8.0745 -15.74886,-11.7848 l -8.27903,-2.8976 -3.95741,4.8011 c -13.71175,16.6349 -67.42272,18.3309 -85.67744,2.7056 l -5.80239,-4.9666 -7.61321,2.3998 c -9.80562,3.0909 -15.32155,7.6805 -14.04921,11.6897 1.21625,3.8319 10.44207,7.5178 21.21095,8.4744 4.77406,0.424 11.39758,2.2336 15.26476,4.1704 3.75727,1.8817 10.71491,3.9276 15.46141,4.5465 14.68132,1.9143 42.00037,1.6035 54.76742,-0.623 z m -10.86193,-23.7706 c 10.0093,-3.0979 14.62285,-7.696 14.62285,-14.5745 0,-3.9856 -0.93879,-6.3263 -3.50355,-8.7357 l -3.50342,-3.2913 -8.09264,4.1005 c -7.70668,3.9049 -8.96383,4.1005 -26.36508,4.1005 -21.65399,0 -27.88353,-1.6324 -30.06051,-7.8773 -1.21231,-3.4775 -1.91454,-3.982 -3.99353,-2.8695 -11.50723,6.1586 -10.90213,22.3088 1.02284,27.2982 12.71616,5.3205 45.39582,6.3297 59.87304,1.8491 z m -60.57583,-16.2922 c -1.02496,-1.6584 0.30444,-4.2166 2.19129,-4.2166 0.72739,0 1.32267,1.2649 1.32267,2.811 0,2.9645 -2.04499,3.7825 -3.51396,1.4056 z m 45.68144,-7.0734 c 8.59331,-1.8782 19.67815,-7.0698 19.67815,-9.2164 0,-0.9644 -2.06676,-3.0308 -4.59288,-4.592 -2.52611,-1.5612 -8.29969,-7.0347 -12.8303,-12.1632 l -8.23756,-9.3248 -4.52372,4.3846 c -2.48803,2.4115 -8.57392,6.2988 -13.52424,8.6386 -11.65791,5.5099 -13.92019,7.6744 -13.92019,13.3174 0,5.6554 1.11365,6.4026 12.65024,8.4867 11.58806,2.0937 17.37653,2.2009 25.3005,0.4691 z M 106.88712,966.98487 c -2.76872,-2.76868 -2.77531,-4.00472 -0.0337,-6.27994 1.53898,-1.27727 1.70667,-2.09451 0.57319,-2.79494 -1.17506,-0.72617 -1.09916,-1.83772 0.28491,-4.173 1.48768,-2.51036 1.51508,-3.31774 0.12932,-3.81953 -2.62043,-0.94889 -2.12158,-6.66428 0.81342,-9.32039 2.8657,-2.59348 18.51335,-3.37165 18.51335,-0.92072 0,0.77305 -0.9915,1.4056 -2.20311,1.4056 -1.48304,0 -1.94027,0.82812 -1.39898,2.53355 1.11056,3.49921 -2.20522,7.56028 -7.83682,9.59831 -4.53892,1.64266 -4.57644,1.71438 -0.95145,1.8171 2.07563,0.0589 5.39631,0.72374 7.37932,1.47771 4.61888,1.75614 4.87863,7.4171 0.48154,10.497 -4.0343,2.82555 -12.91645,2.81389 -15.7511,-0.0205 z m 14.3153,-4.4677 c 0.39849,-1.21298 -1.19994,-1.75704 -5.16228,-1.75704 -4.26341,0 -5.73942,0.56404 -5.73942,2.19325 0,1.66828 1.23551,2.08875 5.16228,1.75691 2.83928,-0.23988 5.42204,-1.22681 5.73942,-2.19312 z m -3.17099,-17.21841 c 0,-4.00689 -4.43644,-5.70578 -5.77695,-2.21233 -1.2788,3.33246 0.53062,6.69809 3.31283,6.16223 1.55611,-0.29956 2.46412,-1.75524 2.46412,-3.9499 z m -44.627249,13.0869 c -1.35288,-0.35361 -2.45978,-1.1916 -2.45978,-1.86244 0,-2.28816 2.59555,-2.82901 6.0419,-1.25871 2.5441,1.15919 4.22096,1.15087 6.43054,-0.032 4.87344,-2.60821 3.57272,-6.10845 -3.69162,-9.93425 -5.56934,-2.93288 -6.74426,-4.25485 -7.10649,-7.99548 -0.33846,-3.49486 0.33426,-4.98499 3.05518,-6.76777 4.65993,-3.05339 14.04149,-2.35552 14.69523,1.09298 0.40846,2.15496 -0.26791,2.3755 -4.97577,1.62269 -4.04513,-0.64677 -5.92299,-0.29944 -7.2909,1.34886 -1.58422,1.90893 -1.21062,2.56787 2.66611,4.70246 11.66015,6.42018 14.16252,11.52671 8.4484,17.24095 -2.71319,2.71323 -9.46857,3.50024 -15.8128,1.84233 z m 22.84071,-9.57296 c 0,-9.60484 0.24978,-10.54195 2.81117,-10.54195 2.561249,0 2.811159,0.93711 2.811159,10.54195 0,9.60485 -0.24991,10.54183 -2.811159,10.54183 -2.56139,0 -2.81117,-0.93698 -2.81117,-10.54183 z m 33.733999,0.23976 v -10.30208 l 7.32308,-0.16688 c 4.02783,-0.0922 8.13917,0.51037 9.13628,1.33798 2.63534,2.18711 2.49577,19.43305 -0.15714,19.43305 -1.36453,0 -2.27423,-2.61769 -2.95832,-8.512 -0.88847,-7.6548 -1.2916,-8.4687 -4.00339,-8.08205 -2.62478,0.37423 -3.07007,1.47681 -3.43693,8.512 -0.36165,6.93195 -0.81159,8.08205 -3.16256,8.08205 -2.46834,0 -2.74102,-1.02497 -2.74102,-10.30207 z m 24.12499,8.56437 c -4.06859,-4.06862 0.83155,-10.91247 7.81336,-10.91247 1.82473,0 3.20121,-0.85629 3.20121,-1.99128 0,-2.65034 -2.90351,-3.56581 -6.09418,-1.92173 -3.0802,1.58721 -4.40468,0.63178 -3.25997,-2.35155 0.99361,-2.58926 11.45916,-3.04302 12.99166,-0.5634 0.54579,0.88307 1.06754,5.51906 1.15961,10.3022 l 0.16726,8.69655 -7.17171,0.18878 c -3.94434,0.10374 -7.90766,-0.54738 -8.80724,-1.4471 z m 10.5295,-4.64803 c 0.4578,-1.193 0.48563,-2.51574 0.0619,-2.93953 -1.39855,-1.39843 -6.60469,1.04111 -6.60469,3.09489 0,2.709 5.49372,2.57862 6.54285,-0.15536 z m 13.41643,4.69901 c -0.92768,-0.92764 -1.6867,-5.03891 -1.6867,-9.13623 0,-4.09731 -0.63251,-7.44963 -1.40557,-7.44963 -0.77308,0 -1.40559,-0.63255 -1.40559,-1.4056 0,-0.77305 0.97647,-1.4056 2.16994,-1.4056 1.27275,0 1.99916,-0.9959 1.75698,-2.4088 -0.23769,-1.38614 0.63125,-2.62332 2.04681,-2.91418 1.7141,-0.3522 2.45977,0.37782 2.45977,2.4088 0,1.9772 0.90392,2.91418 2.81116,2.91418 1.56175,0 2.81117,0.93711 2.81117,2.10847 0,1.17123 -1.24942,2.10834 -2.81117,2.10834 -2.39468,0 -2.81116,0.93711 -2.81116,6.32514 0,5.38804 0.41648,6.32515 2.81116,6.32515 1.56175,0 2.81117,0.93698 2.81117,2.10834 0,2.58183 -7.08526,2.89432 -9.55797,0.42162 z m 15.4281,-0.18635 c -2.42997,-3.04519 -3.29117,-8.05477 -2.3462,-13.6476 1.47643,-8.7392 4.68481,-7.18221 5.19082,2.51907 0.39484,7.57143 0.64348,8.08206 3.93549,8.08206 3.29188,0 3.54053,-0.51063 3.9355,-8.08206 0.36151,-6.93196 0.81158,-8.08218 3.16256,-8.08218 2.46961,0 2.74106,1.02548 2.74106,10.35702 v 10.35701 l -7.65498,0.0692 c -4.23249,0.0384 -8.24037,-0.66483 -8.96425,-1.5721 z m 22.24156,-8.5517 v -10.42464 h 6.32512 c 4.36616,0 6.32512,0.58632 6.32512,1.89344 0,1.04136 -1.42316,2.09566 -3.16256,2.34258 -2.80161,0.39792 -3.21078,1.37166 -3.5841,8.53134 -0.36165,6.93195 -0.81158,8.08205 -3.16256,8.08205 -2.4713,0 -2.74102,-1.02599 -2.74102,-10.42477 z m 17.98442,8.73036 c -8.18611,-6.21526 -4.56799,-19.38937 5.32505,-19.38937 5.42303,0 9.01893,3.09309 9.01893,7.75764 0,3.03841 -0.6668,3.37857 -7.37931,3.76497 l -7.37931,0.42495 3.28429,3.2843 c 2.42421,2.42417 4.20887,3.05237 6.81412,2.39843 2.53568,-0.6364 3.36146,-0.37372 2.93205,0.93237 -0.81707,2.48603 -9.66662,3.06594 -12.61582,0.82671 z m 7.30426,-12.32435 c 1.49456,-0.94492 1.66295,-1.75921 0.58641,-2.83579 -1.90779,-1.90778 -6.19694,-0.35297 -6.19694,2.24627 0,2.24986 2.55901,2.51869 5.61053,0.58952 z m 26.68429,9.98471 c -4.036,-4.03597 -4.83296,-6.74074 -4.19566,-14.23853 0.44093,-5.18862 2.41282,-8.14878 7.01231,-10.52735 6.6567,-3.44222 16.89509,-2.52445 16.89509,1.51459 0,1.47233 -1.46292,1.73053 -6.15715,1.08722 -8.2526,-1.13127 -12.11542,2.4467 -12.11542,11.22163 0,8.13098 3.62458,11.51262 12.14087,11.32666 8.88511,-0.1939 6.99966,2.84258 -2.09446,3.37306 -6.51024,0.37987 -7.756,-0.0282 -11.48558,-3.75728 z m 25.32621,0.19096 c -3.41824,-4.34552 -3.01103,-10.31706 1.00598,-14.75582 3.58507,-3.96143 12.66064,-2.88305 16.2394,1.92968 2.41901,3.25319 2.55282,4.33976 1.08216,8.79568 -2.89184,8.76251 -12.87781,10.95857 -18.32754,4.03046 z m 12.69523,-2.57952 c 1.84805,-4.86089 0.33466,-10.13686 -3.23243,-11.26903 -3.27654,-1.03995 -6.64377,2.41047 -6.64377,6.80799 0,7.73651 7.36582,11.06359 9.8762,4.46104 z m 11.20755,-1.86052 c 0,-6.58834 -0.50334,-8.47818 -2.45976,-9.23663 -2.22252,-0.86155 -2.24501,-1.11334 -0.23292,-2.61013 1.22483,-0.91111 2.66541,-3.41751 3.20136,-5.56977 1.06516,-4.27752 6.3971,-7.51572 10.06046,-6.10999 3.03915,1.16624 1.9047,4.38727 -1.54811,4.39483 -1.72339,0 -2.85798,1.1469 -3.14513,3.16853 -0.38204,2.69043 0.19509,3.16251 3.86535,3.16251 3.63132,0 4.31458,-0.54047 4.31458,-3.41353 0,-1.87743 0.99388,-4.40751 2.20873,-5.62229 2.88721,-2.88728 10.44151,-2.95989 10.44151,-0.0999 0,1.31185 -1.32757,2.10834 -3.51395,2.10834 -2.81117,0 -3.51396,0.70286 -3.51396,3.51394 0,2.57696 0.7496,3.51394 2.81117,3.51394 1.56173,0 2.81116,0.93711 2.81116,2.10847 0,1.17123 -1.24943,2.10834 -2.81116,2.10834 -2.49885,0 -2.81117,0.93711 -2.81117,8.43349 0,7.55669 -0.29869,8.43348 -2.87287,8.43348 -1.58001,0 -2.77012,-0.79059 -2.64461,-1.75691 0.12513,-0.96643 0.15322,-5.03545 0.0619,-9.04234 -0.16333,-7.14904 -0.24541,-7.28301 -4.38316,-7.16544 l -4.21676,0.12039 v 8.92247 c 0,7.98523 -0.29531,8.92234 -2.81116,8.92234 -2.49323,0 -2.81117,-0.93711 -2.81117,-8.28312 z m 29.39173,5.65302 c -4.0842,-3.3071 -4.41705,-11.39953 -0.64054,-15.57254 5.26153,-5.81401 16.22746,-2.27419 16.22746,5.23819 0,2.60206 -0.93261,3.03213 -7.37931,3.40329 l -7.37931,0.42495 3.13319,3.13318 c 2.40059,2.4006 4.12636,2.93466 7.3793,2.28418 4.44432,-0.88895 6.01351,1.33427 2.02278,2.86576 -4.23502,1.62512 -10.13018,0.84119 -13.36357,-1.77701 z m 10.42084,-10.945 c 1.25351,-1.25345 -1.74727,-4.69747 -4.09292,-4.69747 -1.03774,0 -2.56378,1.26498 -3.39125,2.81121 -1.34205,2.50741 -1.06895,2.8112 2.52739,2.8112 2.21758,0 4.4481,-0.41623 4.95678,-0.92494 z m 11.26168,11.49956 c -4.08857,-2.86385 -5.19124,-8.33948 -2.66345,-13.22765 4.56632,-8.83039 17.65159,-7.36472 17.65159,1.97706 0,3.03841 -0.6668,3.37857 -7.3793,3.76497 l -7.37932,0.42495 3.28429,3.2843 c 2.3299,2.32978 4.24528,3.04328 6.59035,2.45465 3.75671,-0.94287 6.03811,1.24807 2.65248,2.54725 -3.86169,1.4818 -9.69079,0.92187 -12.75664,-1.22553 z m 9.36582,-12.60009 c 0,-2.66098 -2.01266,-3.81517 -4.79277,-2.74832 -3.56427,1.36769 -2.6519,4.77379 1.2788,4.77379 2.12244,0 3.51397,-0.80212 3.51397,-2.02547 z m 220.71853,7.99919 c 11.07445,-28.62332 12.05835,-29.22731 18.89047,-11.59613 6.69451,17.2763 6.93387,18.27258 4.39034,18.27258 -1.19179,0 -3.14823,-1.89753 -4.34747,-4.21668 -1.87519,-3.62613 -2.97337,-4.21681 -7.83991,-4.21681 -5.02454,0 -5.82432,0.47311 -7.12941,4.21681 -0.90153,2.58618 -2.45162,4.21668 -4.00858,4.21668 -2.44149,0 -2.43981,-0.25538 0.045,-6.67645 z m 13.73198,-10.54196 c -0.84771,-2.51241 -1.65015,-4.71834 -1.7834,-4.90187 -0.13354,-0.18353 -1.29412,1.87218 -2.57967,4.56812 l -2.33763,4.90199 h 4.12089 c 4.02826,0 4.08632,-0.10245 2.57981,-4.56824 z m 15.74323,6.7647 v -10.45384 l 5.62233,0.0781 c 6.18303,0.0858 7.06066,1.39049 2.89649,4.30723 -1.80899,1.26703 -3.05166,4.36678 -3.695,9.21601 -0.63434,4.78148 -1.63539,7.3067 -2.89663,7.3067 -1.45984,0 -1.92719,-2.53508 -1.92719,-10.45371 z m 17.14811,8.76699 c -0.92769,-0.92764 -1.6867,-5.07631 -1.6867,-9.21922 0,-4.66378 -0.53539,-7.20168 -1.40558,-6.66377 -0.77307,0.47771 -1.40559,-0.11783 -1.40559,-1.32274 0,-1.20517 0.63252,-2.19133 1.40559,-2.19133 0.77306,0 1.40558,-1.19736 1.40558,-2.66072 0,-1.46349 1.00049,-3.04468 2.22335,-3.51394 3.27978,-1.25858 3.39898,-1.16534 3.39898,2.66072 0,2.57696 0.7496,3.51394 2.81117,3.51394 1.65185,0 2.81116,0.93711 2.81116,2.2724 0,1.58029 -0.85614,2.0484 -2.81116,1.53713 -2.5607,-0.66956 -2.81117,-0.0435 -2.81117,7.02789 0,7.07104 0.25047,7.69758 2.81117,7.02788 1.82697,-0.47771 2.81116,-0.0435 2.81116,1.24167 0,2.45772 -7.17268,2.67545 -9.55796,0.29009 z m 13.77471,-8.85511 c 0,-9.82846 0.20311,-10.54195 3.00219,-10.54195 2.76296,0 2.93092,0.51985 2.10837,6.52135 -0.49167,3.58669 -0.89381,8.33052 -0.89381,10.54183 0,2.6369 -0.7257,4.0206 -2.10837,4.0206 -1.6867,0 -2.10838,-2.10834 -2.10838,-10.54183 z m 9.13629,9.13623 c -0.95565,-1.5461 -0.49659,-1.70875 5.49162,-1.94633 5.69162,-0.22566 6.25372,-3.40265 0.93049,-5.2583 -3.7106,-1.29354 -7.1249,-4.82105 -7.1249,-7.36113 0,-2.2327 5.07092,-5.11242 9.00233,-5.11242 5.28289,0 6.57701,0.86833 5.49528,3.68735 -0.58726,1.53035 -1.2275,1.62717 -2.69648,0.40804 -2.06592,-1.71451 -6.1788,-0.81902 -6.1788,1.34541 0,0.72169 1.84848,1.95657 4.10782,2.74422 9.56513,3.33439 7.56386,12.89876 -2.699,12.89876 -3.00289,0 -5.8506,-0.63255 -6.32836,-1.4056 z m 19.20547,-0.3321 c -4.09981,-4.09974 0.8425,-10.91247 7.91638,-10.91247 2.39637,0 3.16973,-0.67597 2.81467,-2.45977 -0.38821,-1.95017 -1.63482,-2.35731 -6.01631,-1.96528 -4.9343,0.44147 -5.32646,0.2532 -3.65802,-1.75704 2.20773,-2.6602 11.4233,-3.03482 13.89347,-0.5648 0.94455,0.94467 1.6867,5.47346 1.6867,10.29362 v 8.60677 l -7.5006,0.19736 c -4.12539,0.10886 -8.23672,-0.53867 -9.13629,-1.43839 z m 11.01457,-5.09526 c 0,-2.03277 -0.78376,-2.46643 -3.51397,-1.94453 -1.93267,0.36949 -3.51395,1.54674 -3.51395,2.61628 0,1.13703 1.45899,1.94453 3.51395,1.94453 2.48958,0 3.51397,-0.76268 3.51397,-2.61628 z m 11.24465,-3.46911 v -10.30208 l 7.32309,-0.16688 c 4.02784,-0.0922 8.13917,0.51037 9.13629,1.33798 1.1336,0.9407 1.8132,4.86435 1.8132,10.46883 0,8.09127 -0.27984,8.96422 -2.87286,8.96422 -1.58003,0 -2.77013,-0.7906 -2.64461,-1.75691 0.12513,-0.96644 0.1532,-4.7615 0.0619,-8.43348 -0.14056,-5.61473 -0.60047,-6.67658 -2.89466,-6.67658 -3.61854,0 -4.07732,0.98257 -4.46933,9.57282 -0.27353,5.99664 -0.78811,7.29415 -2.89269,7.29415 -2.24345,0 -2.55999,-1.27394 -2.55999,-10.30207 z m 35.13958,-5.1593 v -15.46137 h 7.41797 c 9.49892,0 13.66577,2.74358 13.66577,8.99803 0,5.6616 -3.49358,9.10574 -10.36758,10.22126 -4.83464,0.78458 -5.09383,1.10335 -5.09383,6.26508 0,4.50139 -0.48436,5.43837 -2.81117,5.43837 -2.6408,0 -2.81116,-0.93698 -2.81116,-15.46137 z m 14.60963,-3.16264 c 2.12313,-3.39073 -0.47452,-7.25201 -5.26377,-7.82399 -3.49877,-0.4179 -3.72353,-0.0935 -3.72353,5.36422 0,5.45848 0.22476,5.78224 3.72353,5.36434 2.04793,-0.24462 4.41662,-1.5516 5.26377,-2.90457 z m 10.69087,8.08218 c 0,-9.60484 0.24976,-10.54195 2.81115,-10.54195 2.56126,0 2.81117,0.93711 2.81117,10.54195 0,9.60485 -0.24991,10.54183 -2.81117,10.54183 -2.56139,0 -2.81115,-0.93698 -2.81115,-10.54183 z m 9.83907,9.26251 c 0,-0.70364 2.54466,-4.4987 5.65494,-8.43349 l 5.65508,-7.15416 h -5.65508 c -4.08954,0 -5.65494,-0.58363 -5.65494,-2.10834 0,-1.65791 1.95221,-2.10847 9.13629,-2.10847 5.76332,0 9.13629,0.57671 9.13629,1.56198 0,0.85899 -2.53005,4.58374 -5.62234,8.27711 -3.09228,3.6935 -5.62233,7.10191 -5.62233,7.57437 0,0.47259 2.53005,0.85911 5.62233,0.85911 3.09229,0 5.62234,0.63256 5.62234,1.40561 0,0.7929 -3.98258,1.4056 -9.13629,1.4056 -5.02496,0 -9.13629,-0.57569 -9.13629,-1.27932 z m 22.64324,-1.88319 c 0.91208,-1.73949 3.46434,-5.46744 5.67181,-8.28441 2.20732,-2.81697 4.01336,-5.43568 4.01336,-5.81926 0,-0.38358 -2.2138,-0.39907 -4.91954,-0.0346 -3.82811,0.51588 -4.91955,0.16983 -4.91955,-1.56006 0,-1.77996 1.68067,-2.22296 8.4335,-2.22296 10.24417,0 10.50842,1.0598 2.63505,10.56757 l -5.79846,7.00214 5.79846,0.43225 c 9.30088,0.69326 6.67553,3.08169 -3.38731,3.08169 -9.08035,0 -9.1668,-0.0359 -7.52732,-3.16251 z m 20.9852,0.45479 c -2.61817,-4.89188 1.59085,-9.94245 8.28564,-9.94245 3.37396,0 3.96557,-3.89752 0.77729,-5.121 -1.16945,-0.44877 -3.08217,-0.023 -4.25063,0.94723 -2.52499,2.09553 -4.14647,0.95671 -2.97716,-2.09079 1.02733,-2.67699 11.14023,-2.98936 13.28064,-0.41035 0.80274,0.96734 1.63526,5.55133 1.85003,10.18668 l 0.39034,8.42798 -7.95265,0.35694 c -6.63478,0.29764 -8.19314,-0.0922 -9.4035,-2.35424 z m 8.96594,-0.95658 c 2.24963,-0.86334 3.1842,-6.17479 1.08638,-6.17479 -2.4505,0 -6.26567,3.87908 -5.31999,5.40917 1.1596,1.87627 1.2816,1.89843 4.23361,0.76562 z m 12.06242,1.64433 c 0,-1.52356 1.20895,-1.82389 4.91955,-1.22169 6.39569,1.03791 6.55578,-1.9859 0.31288,-5.91339 -5.30467,-3.3372 -6.54496,-7.49266 -3.00823,-10.07884 3.44593,-2.51971 11.83164,-2.43864 11.83164,0.11398 0,1.30929 -1.47333,1.89523 -4.41845,1.75704 -5.26882,-0.24718 -6.93824,2.65239 -2.33551,4.05646 7.62583,2.32619 10.70523,9.03363 5.44072,11.85099 -4.17092,2.23231 -12.7426,1.85219 -12.7426,-0.56493 z m -73.52954,-22.78267 c -1.9896,-1.98962 -0.86388,-4.71463 1.94785,-4.71463 1.965,0 2.76619,0.76332 2.45978,2.34336 -0.50179,2.58695 -2.90113,3.87779 -4.40763,2.37127 z M 95.814501,933.15525 c -1.46545,-1.46554 0.39076,-3.31799 3.3245,-3.31799 1.500449,0 2.728219,0.94877 2.728219,2.10847 0,2.08477 -4.315139,2.94709 -6.052719,1.20952 z m 562.207169,-0.0256 c -0.50868,-0.50871 -0.21393,-1.7815 0.655,-2.8285 1.19348,-1.43813 2.0499,-1.51356 3.50173,-0.30865 1.05714,0.8773 1.92199,2.15009 1.92199,2.82849 0,1.4334 -4.7146,1.67264 -6.07872,0.30866 z m 3.47417,-38.88518 c -0.94637,-1.14049 1.48711,-12.16874 7.65593,-34.69449 8.50448,-31.05389 24.24983,-89.98396 27.78881,-104.00452 1.45126,-5.7496 2.0208,-6.36585 6.25947,-6.77264 11.40435,-1.09452 37.69717,8.13752 53.98409,18.95506 21.01543,13.95813 40.09382,35.48184 47.72305,53.83984 2.57811,6.20335 2.72373,7.50124 1.02649,9.14903 -1.08777,1.05609 -11.46547,6.15148 -23.06153,11.32307 -11.59606,5.17159 -38.47783,17.31305 -59.73728,26.98091 -57.25866,26.0388 -60.02359,27.1702 -61.63903,25.22374 z m 25.09388,-15.44459 14.75862,-7.08104 -5.26166,-1.29802 c -5.92917,-1.46272 -12.31094,-8.06438 -12.30292,-12.72701 0.0141,-8.2561 9.79901,-16.40783 19.69489,-16.40783 10.21423,0 14.5756,12.93949 7.75107,22.99604 -1.90934,2.81364 -3.30367,5.11563 -3.09832,5.11563 0.74819,0 65.03393,-29.05096 69.46981,-31.39354 2.51248,-1.32697 4.56815,-2.94299 4.56815,-3.59117 0,-0.64831 -3.95321,-7.0909 -8.7849,-14.31704 -15.87057,-23.73553 -42.88546,-41.49103 -69.31618,-45.5579 -5.57679,-0.85809 -5.74981,-0.76041 -7.23636,4.08311 -1.50468,4.90271 -1.4677,4.97261 3.08469,5.82665 6.52697,1.22446 14.4158,8.19093 16.07341,14.1941 1.95291,7.0731 0.43207,12.71805 -4.84955,17.99965 -5.55992,5.55991 -11.23369,6.86114 -19.31368,4.42954 l -6.13551,-1.84656 -5.13461,19.11287 c -2.82395,10.51211 -6.96283,25.85937 -9.19771,34.10497 -3.441,12.69627 -3.71594,14.87326 -1.79548,14.21548 1.24717,-0.42726 8.90899,-3.96336 17.02624,-7.85793 z M 719.71931,852.69 c -1.27767,-2.06736 3.28526,-5.0685 5.03929,-3.31454 0.82761,0.82761 1.07977,2.19236 0.56027,3.03278 -1.13852,1.84207 -4.52977,2.01279 -5.59956,0.28176 z m 14.62158,-10.98804 c -4.91223,-3.38561 -6.72895,-5.97768 -8.43056,-12.02785 -1.19684,-4.25562 -1.03506,-6.23883 0.82973,-10.16837 2.82184,-5.94669 9.86549,-10.5481 16.14648,-10.5481 6.50603,0 15.69124,4.78238 18.5811,9.67464 4.69901,7.95462 1.72593,19.12567 -6.27113,23.56328 -4.77266,2.64855 -16.70663,2.36602 -20.85562,-0.4936 z m 18.36056,-3.95553 c 4.39934,-2.27484 6.07844,-6.2948 5.33124,-12.763 -0.33326,-2.886 -2.15294,-5.12536 -6.5683,-8.08308 -5.70498,-3.8217 -6.47566,-3.98064 -11.70498,-2.41392 -4.43953,1.33016 -6.04654,2.74934 -7.76697,6.85908 -2.00887,4.7989 -1.97485,5.54301 0.46033,10.06783 4.32609,8.03851 12.19301,10.49892 20.24868,6.33309 z m -12.21465,-8.46845 c -1.06051,-2.76382 0.19453,-4.03277 2.94469,-2.97745 1.23537,0.474 1.79338,1.74013 1.31576,2.98487 -1.06557,2.77676 -3.19348,2.77304 -4.26045,0 z m -45.46358,0.68045 c 0,-0.81877 0.6325,-1.09772 1.40558,-0.61988 0.77307,0.47784 1.40559,1.14767 1.40559,1.4886 0,0.3408 -0.63252,0.61974 -1.40559,0.61974 -0.77308,0 -1.40558,-0.66982 -1.40558,-1.48846 z m 28.71733,-33.80823 c -1.05968,-1.71439 2.09712,-4.29237 3.89529,-3.18108 0.61676,0.38114 1.12137,1.60437 1.12137,2.71835 0,2.38523 -3.62205,2.71925 -5.01666,0.46273 z m -19.3539,68.36235 c 5.59001,-3.91545 5.32688,-19.00976 -0.33144,-19.00976 -4.29504,0 -11.45268,4.34988 -13.0975,7.95987 -2.26706,4.97564 -0.69618,8.80183 4.551,11.08473 5.59183,2.43288 5.35344,2.43377 8.87794,-0.0346 z m 90.40442,-33.92106 c 6.45949,-2.58451 6.61087,-3.21758 2.78545,-11.64902 -6.51572,-14.36096 -24.08031,-34.16797 -40.03228,-45.1433 -13.18099,-9.06871 -44.87084,-20.85107 -52.1973,-19.40707 -1.39279,0.2745 -2.92473,2.96882 -3.92031,6.89487 l -1.63427,6.4443 7.13207,1.49594 c 30.45041,6.38705 59.95064,27.58064 74.54214,53.55272 3.09227,5.5042 6.08392,10.02211 6.64798,10.04004 0.5642,0.0179 3.56863,-0.98489 6.67652,-2.22848 z m -89.97615,-15.28437 c 9.2992,-4.80876 8.07199,-19.77603 -1.96528,-23.96991 -7.83879,-3.27521 -8.621,-2.80136 -11.10438,6.72717 -4.3902,16.84456 -4.37038,16.36685 -0.73723,17.82189 4.87569,1.95273 9.26701,1.76856 13.80689,-0.57915 z m -523.53226,67.95752 c -22.88724,-2.88178 -42.9556,-10.304 -44.96333,-16.62966 -2.08209,-6.56029 6.86529,-13.22816 24.60023,-18.33251 l 10.55972,-3.03918 -4.51572,-9.3679 c -5.52393,-11.45986 -8.28619,-21.73273 -9.53547,-35.46486 -1.23621,-13.58536 -0.32666,-14.73576 14.01549,-17.72908 14.7759,-3.08385 79.7906,-3.53517 92.7685,-0.64397 13.71989,3.05653 17.46056,5.34311 18.40737,11.25206 l 0.81804,5.10614 8.27059,0.0487 c 13.25226,0.0781 21.32087,7.7547 21.32087,20.28525 0,14.18179 -11.98217,23.33223 -32.86407,25.09708 l -11.73606,0.99192 11.94745,3.81594 c 18.66179,5.96052 24.90482,10.86393 22.37183,17.57163 -2.69212,7.12894 -19.81226,13.47598 -44.80774,16.61173 -17.6059,2.20875 -60.6037,2.44811 -76.6577,0.42674 z m 89.79371,-8.23178 c 18.03855,-3.84155 28.98706,-9.23714 26.59546,-13.10661 -1.327,-2.14715 -12.11641,-6.40161 -22.11572,-8.72063 l -9.4697,-2.1962 -5.68333,5.13445 c -3.12587,2.82402 -9.87267,7.11959 -14.99307,9.54555 -8.68369,4.11448 -10.35141,4.41109 -24.80249,4.41109 -14.58562,0 -16.02607,-0.26293 -24.59773,-4.48922 -5.00766,-2.46899 -11.63486,-6.82437 -14.72713,-9.67874 l -5.62233,-5.18952 -8.24079,1.68442 c -9.13643,1.86769 -23.43473,7.74881 -25.00139,10.2835 -0.55506,0.89818 -0.69169,2.14663 -0.30375,2.77432 1.52141,2.46169 11.56626,6.50957 21.75126,8.76545 18.44728,4.08579 29.13267,4.82631 61.69289,4.2756 25.30471,-0.42803 34.40206,-1.12615 45.51782,-3.49346 z M 238.9092,862.37052 c 12.64883,-4.35179 22.85772,-12.89171 28.81444,-24.10336 4.1847,-7.87675 8.43589,-24.85156 8.43589,-33.68502 v -7.94604 l -5.27094,1.80007 c -19.69447,6.72537 -74.79643,5.96206 -103.31037,-1.43135 -3.65943,-0.94889 -3.86535,-0.74577 -3.86535,3.81158 0,20.70405 12.16546,45.77257 26.96624,55.56734 13.47112,8.91466 32.76052,11.30912 48.23009,5.98678 z m 58.07966,-27.71669 c 9.36624,-4.44452 13.12786,-17.24274 7.26026,-24.7021 -3.93423,-5.00151 -11.31818,-7.26687 -17.277,-5.3003 -4.43392,1.46336 -4.72853,2.00434 -6.37405,11.70511 -0.94891,5.59398 -2.97688,12.9473 -4.50657,16.34059 l -2.78122,6.1698 9.43778,-0.96695 c 5.19068,-0.53176 11.59915,-1.99257 14.2408,-3.24615 z m -33.62843,-40.37966 c 5.71608,-1.1661 10.67737,-2.40457 11.02497,-2.75216 1.26489,-1.26489 -10.53006,-3.66489 -25.63473,-5.21615 -17.5452,-1.80187 -60.30811,-0.65691 -75.85049,2.03086 l -9.78806,1.69268 11.00346,2.59404 c 6.05188,1.42673 15.51666,3.1132 21.03274,3.7478 14.49787,1.66764 56.01362,0.39139 68.21211,-2.09707 z m 7.91442,-17.58861 c -0.89929,-1.45508 7.67997,-15.45075 9.49695,-15.49253 2.80387,-0.0645 2.30587,4.58102 -1.11758,10.42264 -3.60363,6.14902 -6.59415,7.95846 -8.37937,5.06989 z m -12.8251,-3.42804 c -0.81623,-2.12704 5.80392,-16.3065 7.6132,-16.3065 0.60538,0 1.79296,0.69209 2.63883,1.538 1.11365,1.11362 0.3337,3.63463 -2.8262,9.13629 -4.48859,7.81462 -6.11499,9.04819 -7.42583,5.63221 z M 311.6505,644.85583 c 98.75975,-0.19917 260.36665,-0.19917 359.12642,0 98.75975,0.19918 17.95631,0.36214 -179.56321,0.36214 -197.51953,0 -278.32298,-0.16296 -179.56321,-0.36214 z m -67.99789,-26.74677 c -5.96459,-0.74967 -10.07128,-6.26942 -10.22786,-13.74733 -0.11809,-5.61621 0.47059,-7.01236 4.45471,-10.57288 6.09742,-5.44901 11.85103,-5.44687 17.30441,0.006 3.28303,3.28304 4.10866,5.33848 4.10866,10.22913 0,9.83273 -6.05862,15.28887 -15.63992,14.08465 z m 7.82952,-6.24583 c 4.58754,-6.54963 1.19418,-17.95982 -5.34121,-17.95982 -1.73435,0 -3.91216,0.75901 -4.83984,1.6867 -2.06902,2.06903 -2.22041,12.96239 -0.23179,16.67828 1.97386,3.68816 7.70175,3.4653 10.41284,-0.40516 z m 23.9746,6.33451 c -7.74363,-1.87329 -11.96221,-10.81217 -9.13937,-19.36556 2.96634,-8.98801 12.79825,-12.05022 20.14214,-6.27345 7.6326,6.00373 5.99959,21.04704 -2.67806,24.67282 -2.59626,1.0848 -4.89902,1.89899 -5.11703,1.80931 -0.21813,-0.0897 -1.66153,-0.46909 -3.20768,-0.84312 z m 8.35381,-6.33451 c 4.58754,-6.54963 1.19418,-17.95982 -5.34122,-17.95982 -1.73434,0 -3.91216,0.75901 -4.83985,1.6867 -2.06901,2.06903 -2.22039,12.96239 -0.23177,16.67828 1.97386,3.68816 7.70175,3.4653 10.41284,-0.40516 z m 63.60037,6.26032 c -2.29672,-0.50867 -2.47608,-1.87187 -1.86085,-14.14851 l 0.68072,-13.58558 8.53738,-0.41848 c 6.94905,-0.3406 8.53751,-0.0141 8.53751,1.75698 0,1.64126 -1.55317,2.17545 -6.32512,2.17545 -6.062,0 -6.32513,0.17189 -6.32513,4.1319 0,3.70719 0.50868,4.17674 4.94892,4.56813 6.24936,0.5509 6.46862,3.02209 0.3504,3.95021 -4.24935,0.64461 -4.67131,1.16829 -5.09706,6.32513 -0.25539,3.09228 -0.5635,5.66403 -0.68466,5.715 -0.1209,0.051 -1.36426,-0.16063 -2.76211,-0.47023 z m 30.31955,-0.4876 c -6.02531,-1.74044 -9.38044,-8.12707 -8.34101,-15.87699 1.78832,-13.33252 18.07875,-16.75822 24.12163,-5.07252 4.31036,8.33532 1.24029,18.269 -6.47763,20.95949 -2.45808,0.85688 -4.53286,1.50092 -4.61087,1.4312 -0.0774,-0.0697 -2.18934,-0.71825 -4.69212,-1.44118 z m 10.0932,-5.77272 c 4.62845,-6.60805 1.18351,-17.95982 -5.45028,-17.95982 -4.64841,0 -6.88609,3.42552 -6.88609,10.54187 0,3.39644 0.81538,7.15781 1.81194,8.35861 2.62182,3.15908 7.98877,2.67938 10.52443,-0.94066 z m 129.23604,5.9603 c -4.76295,-1.91994 -8.979,-8.35667 -8.979,-13.70836 0,-9.69652 13.30988,-17.96838 21.04299,-13.07783 3.09326,1.95623 0.76167,3.32424 -5.88617,3.45359 -4.82775,0.0939 -6.26384,0.76514 -7.76515,3.62922 -3.57397,6.81777 0.94498,16.867 7.58481,16.867 2.73584,0 3.29609,-0.72723 3.29609,-4.27837 0,-2.97095 -0.6162,-4.15214 -2.0163,-3.86535 -1.10886,0.22715 -2.05764,-0.21949 -2.10838,-0.99256 -0.0506,-0.77308 1.9636,-1.40559 4.47608,-1.40559 4.29237,0 4.59513,0.3293 5.0154,5.45617 0.24598,3.00089 -0.0703,5.9286 -0.70279,6.50603 -1.948,1.77825 -10.82495,2.67883 -13.95758,1.41605 z m 50.63655,0.0919 c -0.31964,-0.3221 -0.58107,-6.80534 -0.58107,-14.40723 v -13.82154 h 9.25337 c 6.77379,0 9.09862,0.47081 8.67569,1.75697 -0.31782,0.96633 -3.21683,1.95147 -6.44236,2.18919 -5.45562,0.40209 -5.86437,0.72055 -5.86437,4.56815 0,3.78972 0.41169,4.13593 4.91953,4.13593 2.70575,0 4.91955,0.63251 4.91955,1.40558 0,0.77307 -2.05566,1.40744 -4.56814,1.40971 -4.26202,0.004 -4.57532,0.33354 -4.67371,4.91954 -0.10399,4.87541 -0.0562,4.91541 5.97373,4.91541 9.27572,0 7.24072,2.49683 -2.47594,3.03772 -4.70532,0.26193 -8.81665,0.21269 -9.13628,-0.10951 z m 102.14819,-0.0419 c -1.07961,-0.6673 -3.67418,-6.17544 -5.76541,-12.24032 -2.09137,-6.0649 -4.2748,-12.13396 -4.85208,-13.48684 -0.79654,-1.86655 -0.38035,-2.45977 1.72579,-2.45977 2.15602,0 3.6628,2.32422 6.75171,10.41466 l 3.97626,10.41466 2.3708,-6.54931 c 4.55478,-12.58357 5.45576,-14.28001 7.58381,-14.28001 1.17873,0 2.14324,0.262 2.14324,0.58222 0,1.36258 -10.09082,26.91609 -10.9866,27.82231 -0.54143,0.54761 -1.86774,0.44969 -2.94752,-0.2176 z m 63.12657,-13.77971 V 589.6866 h 8.43349 c 6.55929,0 8.43349,0.46853 8.43349,2.10838 0,1.52271 -1.56174,2.10837 -5.62232,2.10837 -5.31001,0 -5.62233,0.23428 -5.62233,4.21675 0,3.88207 0.39033,4.21675 4.91953,4.21675 2.70575,0 4.91954,0.63251 4.91954,1.40558 0,0.77308 -2.21379,1.40559 -4.91954,1.40559 -4.68536,0 -4.91953,0.23426 -4.91953,4.91953 0,4.89351 0.0337,4.91955 6.32512,4.91955 9.78791,0 7.46392,2.51256 -2.81413,3.04262 l -9.13923,0.47133 z m 27.06041,14.11806 c -1.7394,-0.33503 -3.16256,-1.52139 -3.16256,-2.63636 0,-1.55993 1.23059,-1.83044 5.33869,-1.17353 4.08827,0.65374 5.81447,0.28052 7.36961,-1.5933 1.79479,-2.16252 1.72633,-2.62752 -0.58866,-3.99965 -12.36407,-7.32837 -14.95372,-11.90529 -9.51874,-16.82385 3.48753,-3.15611 14.96889,-2.76295 14.96889,0.51257 0,1.52272 -1.56174,2.10838 -5.62234,2.10838 -7.39828,0 -7.45211,3.10097 -0.12512,7.21089 3.02341,1.69598 6.09797,4.15707 6.83211,5.46911 1.87884,3.35709 -0.92094,8.84666 -5.37565,10.54035 -3.70681,1.40929 -4.61973,1.44408 -10.11627,0.38539 z M 207.2605,615.2492 c -2.28252,-1.84819 -3.33896,-4.53586 -3.8423,-9.77456 -0.63618,-6.61992 -0.33551,-7.58424 3.58691,-11.50671 3.29317,-3.29308 5.52284,-4.27629 9.66031,-4.25973 5.77863,0.0231 10.18936,1.96182 8.44109,3.71013 -0.59035,0.59036 -3.51002,0.89744 -6.48831,0.68239 -4.31191,-0.31132 -5.8745,0.26511 -7.67084,2.82979 -5.08401,7.25853 -0.96942,18.05666 6.88048,18.05666 2.7652,0 3.51395,-0.71373 3.51395,-3.35002 0,-2.22142 -0.99473,-3.61016 -2.95256,-4.12215 -4.40623,-1.15223 -1.80968,-3.7725 3.73829,-3.7725 4.56842,0 4.8366,0.26639 4.8366,4.80457 0,8.29639 -0.94243,9.25126 -9.13094,9.25126 -5.07598,0 -8.42059,-0.80638 -10.57268,-2.54913 z m 91.38835,-11.5067 v -14.05583 h 7.83879 c 6.78981,0 8.38866,0.54982 11.94746,4.10863 6.07676,6.07683 5.39252,16.99246 -1.39194,22.20135 -1.22652,0.94175 -5.86706,1.73238 -10.3122,1.75699 l -8.08211,0.0447 z m 15.46141,8.4335 c 5.97064,-5.97063 2.13171,-18.27258 -5.70202,-18.27258 h -4.13706 v 10.54187 c 0,10.30761 0.0774,10.54188 3.51396,10.54188 1.93267,0 4.77898,-1.26503 6.32512,-2.81117 z m 91.16709,2.93535 c -2.78178,-2.2526 -3.31815,-3.97648 -3.31815,-10.66356 0,-6.9971 0.48422,-8.39316 3.94364,-11.36885 7.12588,-6.12935 16.56816,-3.97508 20.14987,4.59717 2.47382,5.92066 1.43187,12.45643 -2.70378,16.95966 -3.76963,4.10472 -13.28064,4.35501 -18.07158,0.47558 z m 15.29373,-6.17189 c 1.43847,-4.40616 1.38928,-6.19594 -0.27972,-10.19048 -4.07576,-9.75485 -14.74808,-3.77974 -12.95736,7.25454 1.07415,6.61942 3.42133,9.21903 7.85792,8.70332 2.81439,-0.32716 4.02783,-1.62822 5.37916,-5.76738 z m 14.41931,-5.19696 v -14.05583 h 6.39483 c 7.18521,0 13.88577,2.90103 16.05275,6.95007 2.63659,4.92644 1.68614,12.22862 -2.19158,16.83699 -3.30776,3.93094 -4.39527,4.3246 -11.94746,4.3246 h -8.30854 z m 16.51559,7.44312 c 4.66444,-6.26038 0.35563,-17.2822 -6.75621,-17.2822 h -4.13704 v 10.71757 10.71757 l 4.56813,-0.89742 c 2.51249,-0.49358 5.35879,-1.95857 6.32512,-3.25552 z m 88.90312,-7.44312 v -14.05583 h 6.81005 c 4.81244,0 7.49247,0.75402 9.13629,2.57045 2.89944,3.20392 3.01258,9.16596 0.21786,11.48538 -2.9059,2.41167 -2.66765,3.92106 1.47713,9.35501 l 3.58536,4.70082 h -3.39869 c -2.42576,0 -4.5586,-1.71003 -7.45072,-5.97372 l -4.05215,-5.97373 -0.43223,5.97373 c -0.34942,4.82939 -0.95523,5.97372 -3.16256,5.97372 -2.52146,0 -2.73034,-1.07573 -2.73034,-14.05583 z m 11.94746,-5.62233 c 0,-2.57396 -0.84603,-3.6341 -3.16256,-3.96311 -2.7035,-0.38395 -3.16256,0.19139 -3.16256,3.96311 0,3.77171 0.45906,4.34706 3.16256,3.9631 2.31653,-0.32899 3.16256,-1.38914 3.16256,-3.9631 z m 43.27719,5.62233 c 6.13776,-15.37392 9.15274,-17.78758 11.85132,-9.48768 0.81693,2.51247 3.13135,8.83759 5.1433,14.05583 3.56274,9.2405 3.58424,9.48768 0.8241,9.48768 -1.72944,0 -3.35457,-1.36943 -4.16981,-3.51395 -1.11125,-2.92263 -2.26242,-3.51397 -6.84083,-3.51397 -4.69942,0 -5.63372,0.51405 -6.38669,3.51397 -0.53931,2.14886 -1.88249,3.51395 -3.45744,3.51395 -2.29463,0 -1.96347,-1.53321 3.03605,-14.05583 z m 10.18935,1.74352 c -0.42308,-1.10258 -1.18827,-3.67416 -1.70034,-5.71464 l -0.93119,-3.70996 -1.66955,4.89472 c -1.6905,4.95552 -0.9759,6.53459 2.95679,6.53459 1.25266,0 1.80027,-0.81656 1.34429,-2.00471 z m 20.32656,0.36486 v -11.94746 h -4.21675 c -2.81117,0 -4.21675,-0.70278 -4.21675,-2.10837 0,-1.69841 2.18639,-2.10838 11.24467,-2.10838 9.05814,0 11.24465,0.40997 11.24465,2.10838 0,1.40559 -1.40557,2.10837 -4.21674,2.10837 H 631.772 v 11.94746 c 0,11.01039 -0.22055,11.94745 -2.81117,11.94745 -2.59078,0 -2.81117,-0.93706 -2.81117,-11.94745 z m 64.65681,-2.10838 c 0,-13.11877 0.18737,-14.05583 2.81116,-14.05583 2.62367,0 2.81117,0.93706 2.81117,14.05583 0,13.11877 -0.1875,14.05583 -2.81117,14.05583 -2.62379,0 -2.81116,-0.93706 -2.81116,-14.05583 z m 14.05583,0 v -14.05583 h 7.02791 c 5.15371,0 7.77751,0.74965 9.83909,2.81116 3.15819,3.1582 3.63132,7.05108 1.15762,9.52476 -1.26755,1.26759 -1.10351,2.26113 0.70281,4.25714 3.07077,3.39323 2.97224,5.2803 -0.45486,8.70744 -2.12974,2.12966 -4.68537,2.81116 -10.54186,2.81116 h -7.73071 z m 13.78005,6.86022 c 0.32666,-2.81608 -0.30909,-3.87411 -2.70378,-4.50033 -4.29573,-1.12337 -5.45394,-0.0947 -5.45394,4.84434 0,3.78222 0.40677,4.18034 3.86535,3.78239 2.98194,-0.34312 3.9629,-1.28605 4.29237,-4.1264 z m -1.27767,-10.19601 c 2.34761,-2.82873 0.36067,-6.50329 -3.51649,-6.50329 -2.80034,0 -3.36356,0.70621 -3.36356,4.21675 0,3.18803 0.64376,4.21675 2.63899,4.21675 1.45154,0 3.35989,-0.8686 4.24106,-1.93021 z m -235.99006,4.84443 c 0,-2.01153 0.90267,-2.91422 2.9142,-2.91422 2.01153,0 2.76843,0.75693 2.4436,2.44364 -0.70559,3.66397 -5.3578,4.0726 -5.3578,0.47058 z M 140.52075,561.45949 c -4.63842,-0.44984 153.12071,-0.92422 350.57573,-1.05419 197.45516,-0.13001 358.6571,0.11603 358.22657,0.54641 -1.05039,1.0504 -698.05844,1.54974 -708.8023,0.50778 z m 78.39641,-54.61893 c -10.66798,-2.63547 -16.17716,-10.00925 -16.34877,-21.88238 -0.19131,-13.2329 8.84648,-22.00938 22.84875,-22.1881 3.55655,-0.0453 8.13045,0.81976 10.16419,1.92257 3.12321,1.69357 3.50117,2.52659 2.43335,5.36157 -1.24605,3.30768 -1.30705,3.3179 -4.19665,0.70279 -1.95615,-1.77024 -5.02945,-2.65367 -9.23158,-2.65367 -8.9613,0 -13.08374,4.91836 -13.08374,15.60959 0,9.07879 2.57335,14.81598 7.69136,17.14795 4.9052,2.23496 9.02847,2.10514 13.90445,-0.43781 5.16678,-2.69465 5.11027,-2.70925 5.11027,1.31953 0,2.0441 -0.98925,3.70984 -2.45977,4.14181 -5.4881,1.61214 -12.55214,2.01343 -16.83186,0.95615 z m 32.37212,-0.19959 c -4.52738,-1.67478 -6.41099,-5.99322 -4.47116,-10.25065 1.5678,-3.44088 5.18507,-5.44778 12.82581,-7.11578 2.57601,-0.56237 3.86535,-1.74092 3.86535,-3.53347 0,-3.42759 -4.16347,-4.76977 -9.04225,-2.91492 -4.86739,1.85062 -5.01357,1.83262 -5.01357,-0.61754 0,-2.93649 4.52906,-4.96899 11.07247,-4.96899 7.80928,0 10.01127,3.47919 10.01127,15.81828 0,7.19407 0.52147,9.77057 2.10022,10.3764 1.15524,0.44328 1.75037,1.3722 1.32265,2.06426 -1.09705,1.775 -9.0452,1.57269 -9.0452,-0.23024 0,-0.81869 -0.65318,-1.08488 -1.45141,-0.59154 -3.3221,2.05318 -9.31831,3.02062 -12.17418,1.96419 z m 9.99665,-4.95403 c 1.33461,-0.51213 2.22335,-2.51652 2.22335,-5.01427 0,-3.65914 -0.38147,-4.04669 -3.16257,-3.2127 -4.53974,1.36133 -7.19517,4.29578 -6.21013,6.86278 0.89141,2.32289 3.40235,2.80203 7.14935,1.36419 z m 49.13932,4.45579 c -8.62072,-3.7519 -11.54856,-13.55439 -6.56731,-21.987 3.03663,-5.14059 10.32218,-8.71049 15.25156,-7.47327 4.13269,1.03723 9.04323,8.01189 9.05125,12.85601 0,2.979 -0.56575,3.16256 -9.83373,3.16256 -10.84759,0 -12.42662,1.62929 -6.91786,7.13802 2.21408,2.21409 4.30966,2.80954 8.65699,2.45977 7.57482,-0.60946 8.61312,2.38776 1.51043,4.36008 -6.46371,1.79491 -5.76725,1.82716 -11.15133,-0.51617 z m 9.46042,-20.82101 c -1.48248,-4.03523 -7.10058,-4.98812 -9.56205,-1.62182 -2.93667,4.01611 -2.22306,4.78439 4.44404,4.78439 5.9196,0 6.21324,-0.18142 5.11801,-3.16257 z m 39.21561,21.02772 c -3.80294,-1.92406 -4.93373,-5.02739 -3.6687,-10.0677 0.79415,-3.16447 4.5798,-5.28802 12.53245,-7.03009 3.08778,-0.67643 3.85945,-1.55022 3.51396,-3.97961 -0.47115,-3.31359 -4.34269,-3.99809 -10.6331,-1.87998 -2.36699,0.79703 -3.16256,0.52316 -3.16256,-1.08873 0,-3.00478 4.44586,-5.06371 10.93431,-5.06371 8.15463,0 10.14944,2.99155 10.14944,15.22069 0,5.78281 0.5992,10.0798 1.40557,10.0798 0.77308,0 1.40559,0.94877 1.40559,2.10838 0,1.40557 -1.40559,2.10838 -4.21674,2.10838 -2.31921,0 -4.21676,-0.60024 -4.21676,-1.33386 0,-0.73363 -2.19354,-0.41738 -4.87442,0.70279 -5.79466,2.42117 -4.8702,2.39863 -9.16904,0.22364 z m 10.41454,-4.6625 c 1.3346,-0.51213 2.22335,-2.51652 2.22335,-5.01427 0,-3.65914 -0.38148,-4.04669 -3.16256,-3.2127 -4.53976,1.36133 -7.19519,4.29578 -6.21015,6.86278 0.89141,2.32289 3.40235,2.80203 7.14936,1.36419 z m 61.41244,4.5712 c -4.34635,-2.48302 -7.07023,-7.49104 -7.13278,-13.1142 -0.11667,-10.43248 5.66858,-16.34545 15.78765,-16.13773 l 5.94913,0.12218 -0.47634,-8.37785 -0.47622,-8.37785 3.99017,0.001 3.99031,10e-4 v 23.22705 23.22706 l -4.91954,-0.18314 c -2.70575,-0.10079 -6.81708,0.2024 -9.13629,0.6736 -2.51094,0.51016 -5.57567,0.0804 -7.57609,-1.06234 z m 12.39709,-5.70781 c 0.97408,-1.17356 1.47713,-5.35373 1.22638,-10.19047 -0.3923,-7.56788 -0.69633,-8.2324 -3.94027,-8.61168 -5.03256,-0.58834 -8.36702,2.43353 -9.34671,8.47046 -0.59512,3.66756 -0.15419,6.30137 1.4701,8.78029 2.58149,3.93991 7.95504,4.72706 10.5905,1.5514 z m 144.87357,6.63627 c -4.27887,-1.52838 -5.62233,-5.22215 -5.62233,-15.457 0,-8.19471 -0.4266,-10.27323 -2.10838,-10.27323 -1.1596,0 -2.10836,-0.94877 -2.10836,-2.10837 0,-1.15961 1.17519,-2.10838 2.61156,-2.10838 1.92046,0 2.57137,-0.97654 2.45977,-3.68981 -0.10822,-2.61894 0.76605,-4.03357 3.01076,-4.87426 2.8993,-1.08586 3.16256,-0.77883 3.16256,3.68982 0,4.47878 0.34212,4.87425 4.21675,4.87425 2.81117,0 4.21675,0.70279 4.21675,2.10838 0,1.41233 -1.41247,2.10837 -4.27831,2.10837 h -4.27846 l 0.41311,10.19048 c 0.40339,9.95496 0.50221,10.20074 4.27831,10.63523 3.92649,0.45179 5.6094,4.47479 1.87195,4.47479 -1.09649,0 -2.83591,0.26614 -3.86535,0.59143 -1.02959,0.32529 -2.82073,0.25252 -3.98033,-0.1617 z m 18.58532,-1.21222 c -7.10986,-4.97995 -1.99775,-14.66449 8.81131,-16.69227 3.56963,-0.6697 4.93178,-1.65784 4.93178,-3.57797 0,-3.29004 -4.58093,-4.90402 -8.28802,-2.92005 -4.05496,2.1701 -5.76781,1.82446 -5.76781,-1.16379 0,-2.95162 3.60097,-4.33194 11.37819,-4.36149 7.6489,-0.0291 9.70555,3.1745 9.70555,15.11854 0,5.49829 0.63251,10.38777 1.40559,10.86555 2.77054,1.71234 1.32926,3.51397 -2.81117,3.51397 -2.31921,0 -4.21675,-0.60024 -4.21675,-1.33386 0,-0.73363 -2.19355,-0.41738 -4.87442,0.70279 -6.06916,2.53585 -6.44558,2.53031 -10.27425,-0.15142 z m 13.49008,-8.83117 c 0.41479,-4.32808 0.19552,-4.61773 -2.81117,-3.7145 -7.8416,2.35563 -9.10044,9.727 -1.51198,8.85414 3.25434,-0.37433 3.94519,-1.19563 4.32315,-5.13964 z m 20.57,7.56916 c -3.12475,-3.12473 -3.45,-4.58274 -3.45,-15.46141 0,-11.87504 0.0393,-12.01134 3.51396,-12.01134 3.42765,0 3.51396,0.25218 3.51396,10.27322 0,6.75608 0.69463,11.20734 2.02896,13.00164 1.88348,2.53265 2.31204,2.57363 5.97373,0.57124 3.72817,-2.03873 3.96725,-2.75258 4.35519,-13.00163 0.39637,-10.46954 0.53004,-10.84447 3.86536,-10.84447 3.45013,0 3.45491,0.0205 3.45491,14.75863 v 14.75862 h -3.51395 c -1.93268,0 -3.51396,-0.64877 -3.51396,-1.44168 0,-0.8264 -1.76991,-0.52644 -4.14703,0.70278 -5.71693,2.95635 -8.07381,2.70164 -12.08113,-1.3056 z m 57.6289,0 c -1.89753,-1.89753 -3.45,-4.45633 -3.45,-5.68621 0,-3.80237 6.29068,-8.76464 12.42464,-9.80098 6.06609,-1.02485 7.42261,-3.30649 3.76894,-6.33885 -1.58325,-1.31394 -3.15442,-1.35058 -6.58782,-0.15366 -4.65052,1.62116 -7.92665,0.28697 -6.19117,-2.52121 1.33234,-2.15564 11.2923,-4.56629 14.35606,-3.47462 6.40509,2.28225 7.52984,4.69923 7.52984,16.18205 0,6.41414 0.58796,11.02681 1.40559,11.02681 0.77306,0 1.40557,0.63251 1.40557,1.40558 0,1.88622 -8.06509,1.80799 -8.69592,-0.0843 -0.32046,-0.96133 -1.98271,-0.71507 -4.68522,0.69414 -5.66773,2.95528 -7.25183,2.77992 -11.28051,-1.24868 z m 13.13588,-3.85896 c 1.49203,-1.49213 2.46721,-8.15238 1.19362,-8.15238 -0.27113,0 -2.48493,0.69439 -4.91955,1.54308 -3.30818,1.15325 -4.42646,2.39609 -4.42646,4.91954 0,2.58621 0.75663,3.37646 3.23285,3.37646 1.77806,0 3.99186,-0.75901 4.91954,-1.6867 z m 59.66699,5.19417 c -2.82452,-2.01955 -3.16256,-3.45484 -3.16256,-13.42625 0,-8.98736 -0.41127,-11.16496 -2.10838,-11.16496 -1.1596,0 -2.10837,-0.94877 -2.10837,-2.10837 0,-1.15961 0.94877,-2.10838 2.10837,-2.10838 1.40559,0 2.10838,-1.40559 2.10838,-4.21675 0,-3.56081 0.54662,-4.21674 3.51395,-4.21674 2.94961,0 3.51396,0.66215 3.51396,4.12339 0,3.35759 0.66062,4.20598 3.55767,4.56813 1.95672,0.24462 3.55753,1.07728 3.55753,1.85035 0,0.77306 -1.60081,1.60572 -3.55753,1.85034 -3.44761,0.43099 -3.55767,0.76816 -3.55767,10.89326 0,10.14066 0.10117,10.44851 3.43088,10.44851 3.17451,0 6.06651,2.21575 4.68945,3.59282 -1.97344,1.97346 -9.17817,1.92216 -11.98568,-0.0853 z M 281.78186,494.10661 c 0,-10.30759 -0.39048,-12.65024 -2.10837,-12.65024 -1.15962,0 -2.10838,-0.94877 -2.10838,-2.10837 0,-1.15961 0.86795,-2.10838 1.92874,-2.10838 1.16059,0 2.28379,-2.22067 2.8203,-5.57617 1.13656,-7.10738 5.7428,-11.55892 11.38607,-11.00358 5.9435,0.5849 6.83282,5.33509 0.9988,5.33509 -3.12165,0 -4.36673,0.78706 -5.00331,3.16256 -1.64158,6.12516 -1.04167,8.0821 2.47762,8.0821 1.84989,0 3.72761,0.94877 4.17261,2.10838 0.60722,1.58232 -0.23205,2.10837 -3.36356,2.10837 h -4.17261 v 12.65024 c 0,12.55655 -0.0266,12.65026 -3.51395,12.65026 -3.48796,0 -3.51396,-0.0937 -3.51396,-12.65026 z m 107.43081,-1.75697 c 0.62744,-13.14664 0.93836,-14.44653 3.55444,-14.85638 1.57678,-0.24703 2.86696,0.2496 2.86696,1.10363 0,1.09965 0.79332,1.12819 2.71868,0.0977 4.34732,-2.32664 12.0495,-1.73954 14.63323,1.11542 1.78806,1.97583 2.32625,5.38989 2.32625,14.75862 0,12.06367 -0.0365,12.18816 -3.51396,12.18816 -3.45084,0 -3.51395,-0.19888 -3.51395,-11.07256 0,-13.47557 -2.02235,-16.41515 -8.14704,-11.84258 -3.51059,2.62092 -3.80042,3.60288 -3.80042,12.87608 v 10.03878 l -3.90597,1.4e-4 -3.90583,1.4e-4 z m 93.56754,-7.37932 v -21.78653 h 8.47861 c 18.95893,0 27.04848,10.16426 16.21846,20.37822 l -4.82002,4.54594 6.25526,9.32446 6.25527,9.32446 -4.5978,-0.0446 c -4.06973,-0.0393 -5.30145,-1.0886 -10.72601,-9.13629 -3.37045,-5.00048 -6.60834,-9.09178 -7.19531,-9.09178 -1.17142,0 -2.80077,8.30903 -2.82509,14.40722 -0.0141,3.18186 -0.63687,3.86535 -3.52941,3.86535 h -3.51396 z m 17.95983,-2.89085 c 3.37255,-2.36231 3.98399,-6.22872 1.66885,-10.55458 -1.06305,-1.98616 -2.95679,-2.71876 -7.02791,-2.71876 h -5.57286 v 7.73071 c 0,7.51498 0.10822,7.73069 3.904,7.73069 2.14717,0 5.30973,-0.98463 7.02792,-2.18806 z m 24.62793,22.56466 c -10.83439,-7.58866 -4.36814,-27.68563 8.90788,-27.68563 6.45021,0 11.75559,5.23704 11.75559,11.60416 v 4.13837 h -9.76599 -9.766 l 1.45001,4.15932 c 1.68487,4.83345 5.15581,6.30806 11.879,5.04678 3.64073,-0.68301 4.79739,-0.41585 4.79739,1.10816 0,3.97015 -14.20046,5.17123 -19.25788,1.62884 z M 539.00353,486.548 c 0,-2.69427 -3.61123,-5.41698 -6.44109,-4.85631 -1.29764,0.25711 -3.3027,1.89063 -4.45569,3.63003 -2.07212,3.1259 -2.0211,3.16257 4.40017,3.16257 4.58107,0 6.49661,-0.57092 6.49661,-1.93629 z m 14.75861,18.80328 c -1.67685,-2.71303 0.75634,-3.94206 6.32541,-3.19511 5.01104,0.67213 5.62204,0.43382 5.62204,-2.1927 0,-1.63571 -1.40713,-3.67229 -3.16256,-4.57746 -13.8447,-7.13858 -12.10543,-18.81815 2.66218,-17.87809 5.93999,0.37813 6.76254,0.79919 6.34044,3.24566 -0.65866,3.8175 -1.37424,4.32537 -3.33348,2.36606 -0.91475,-0.9148 -3.118,-1.66327 -4.89607,-1.66327 -4.06058,0 -4.49083,5.03362 -0.53763,6.28834 8.91828,2.83055 12.85799,11.73256 7.38451,16.68593 -2.85445,2.58322 -14.95752,3.26244 -16.40484,0.92064 z m 120.17734,-13.35303 v -14.75863 h 3.51396 c 1.93267,0 3.51395,0.75902 3.51395,1.6867 0,1.31188 0.37473,1.31188 1.6867,0 2.82845,-2.82848 8.15238,-2.09415 8.15238,1.12447 0,1.8394 -0.9371,2.81117 -2.71081,2.81117 -5.22455,0 -7.12827,3.78063 -7.12827,14.15623 0,9.45087 -0.104,9.73868 -3.51395,9.73868 h -3.51396 z m 56.2233,0 v -14.75863 h 3.51397 c 1.93268,0 3.51396,0.65477 3.51396,1.45503 0,1.003 0.84461,1.003 2.71867,0 1.49541,-0.80026 4.93824,-1.45503 7.65101,-1.45503 7.37271,0 9.30847,3.71876 9.30847,17.88255 0,11.42226 -0.0633,11.6347 -3.45717,11.6347 -3.36005,0 -3.46855,-0.3255 -3.86535,-11.59606 -0.37768,-10.72704 -0.63982,-11.62902 -3.49821,-12.03571 -1.69963,-0.24182 -4.38781,0.25482 -5.97373,1.10363 -2.51249,1.34464 -2.88369,2.89391 -2.88369,12.03571 0,10.25486 -0.0802,10.49243 -3.51396,10.49243 h -3.51397 z M 311.92683,471.49584 c -0.51908,-0.83987 1.10535,-3.64123 3.60996,-6.22528 3.84568,-3.96784 4.95777,-4.44582 7.15343,-3.07461 2.4408,1.52429 2.32709,1.90514 -1.86014,6.22526 -4.6269,4.77367 -7.2857,5.69189 -8.90325,3.07463 z m 338.82053,-53.96343 c -0.77308,-0.24794 -6.14943,-1.52628 -11.94745,-2.84079 -11.51229,-2.60999 -31.532,-11.34022 -38.91076,-16.9683 l -4.66232,-3.55615 V 372.5469 c 0,-20.64753 0.13073,-21.66196 2.91701,-22.54615 1.60447,-0.50922 3.02763,-0.70996 3.16256,-0.44612 0.13494,0.26386 2.44909,4.90733 5.14233,10.31883 13.07319,26.26733 43.07592,44.6301 68.58907,41.97906 24.20048,-2.51465 36.86619,-18.50992 32.82471,-41.45371 -2.87511,-16.32307 -13.34347,-26.47067 -44.68165,-43.31312 -36.66505,-19.70523 -49.27777,-29.80127 -57.48693,-46.01613 -3.80322,-7.51208 -4.14198,-9.38859 -4.14198,-22.93995 0,-17.97093 2.39934,-24.20456 13.99596,-36.36239 15.19463,-15.93006 38.06614,-22.95954 64.83574,-19.92703 13.39423,1.5173 29.2423,6.25722 38.7068,11.57656 5.63934,3.16943 5.72409,3.33264 4.89156,9.40669 -0.46594,3.39971 -0.84714,11.46937 -0.84714,17.93257 v 11.75127 h -3.97652 c -3.40812,0 -4.4581,-1.02835 -7.34671,-7.19545 -4.49561,-9.59855 -18.81471,-22.70582 -28.94601,-26.4964 -4.90998,-1.83707 -11.02076,-2.8533 -17.15724,-2.8533 -23.40366,0 -37.20157,10.94783 -37.20157,29.51724 0,17.83883 10.74737,28.47455 49.86924,49.3513 33.9749,18.13004 44.9265,27.04285 53.08281,43.20044 6.29421,12.46868 8.036,25.217 5.28696,38.69692 -2.99824,14.70268 -7.08427,22.19714 -17.32478,31.77662 -14.56494,13.62482 -31.84222,19.73522 -55.32066,19.56512 -6.5711,-0.0476 -12.57996,-0.28942 -13.35303,-0.53736 z m -180.61739,-4.9496 c 0,-3.4318 0.58865,-4.21931 3.16256,-4.23047 5.47544,-0.0238 17.0157,-6.34832 22.31952,-12.23206 12.69284,-14.08098 14.19175,-27.0454 13.61687,-117.77064 -0.47256,-74.55487 -0.42154,-73.99163 -7.20067,-79.48098 -5.73645,-4.64516 -1.84749,-5.55677 23.70516,-5.55677 23.57767,0 24.51477,0.10758 24.51477,2.81116 0,1.54614 -0.61803,2.81117 -1.37325,2.81117 -0.75522,0 -2.49463,1.71003 -3.86535,3.80007 -2.2779,3.47336 -2.56533,10.21064 -3.34248,78.36125 -0.71671,62.83618 -1.21527,75.95918 -3.17086,83.45141 -7.00429,26.83554 -23.95563,44.22762 -48.81897,50.08832 -4.953,1.1675 -11.37735,2.13208 -14.27638,2.14352 -4.92418,0.0193 -5.27092,-0.25664 -5.27092,-4.19598 z m -208.49489,0.46853 c -1.89769,-1.89771 -0.81594,-4.04123 3.18926,-6.31983 2.25962,-1.28555 5.25998,-4.44811 6.66753,-7.02791 2.40087,-4.40034 2.55928,-10.34383 2.55928,-96.05346 0,-85.07061 -0.17387,-91.71189 -2.52343,-96.43035 -1.38788,-2.78708 -4.07606,-5.89842 -5.97373,-6.91404 -1.89769,-1.0156 -3.45029,-3.00471 -3.45029,-4.42021 0,-2.36573 1.51325,-2.57365 18.73037,-2.57365 17.63121,0 18.89975,0.18559 21.61872,3.16256 1.58858,1.73941 25.33885,36.68571 52.77851,77.65845 27.4395,40.97274 53.13187,79.19423 57.09393,84.93664 l 7.20375,10.44075 v -75.37977 c 0,-82.60382 -0.39357,-87.7024 -7.15568,-92.7018 -2.24893,-1.66273 -4.08898,-4.16924 -4.08898,-5.57 0,-2.33693 1.61487,-2.54683 19.59508,-2.54683 21.8006,0 24.25067,0.97532 17.3061,6.88915 -8.44797,7.19421 -8.05174,2.04194 -8.49197,110.39788 -0.28055,69.00911 -0.87454,100.28265 -1.92916,101.55334 -2.01772,2.43119 -20.91985,2.49383 -23.87958,0.0792 -1.1845,-0.96633 -6.47805,-8.0821 -11.76332,-15.8128 -5.28529,-7.73071 -22.89554,-33.34746 -39.13382,-56.9261 -16.23829,-23.57865 -38.29399,-56.14474 -49.01268,-72.36908 l -19.48854,-29.49876 0.41858,77.99138 0.41872,77.99139 3.21977,6.02996 c 1.77089,3.31645 4.77532,6.73866 6.67652,7.60491 1.90119,0.86625 3.45675,2.73849 3.45675,4.16052 0,2.39794 -1.564,2.58557 -21.55237,2.58557 -11.85369,0 -21.97389,-0.42168 -22.48932,-0.93706 z m 315.31285,-176.8768 c -1.92438,-2.31861 -1.73378,-3.88465 3.33518,-27.40124 l 3.1811,-14.75863 10.09799,-0.41297 c 5.55402,-0.22713 10.09813,-0.1662 10.09813,0.13536 0,1.17588 -18.69762,41.14126 -20.0221,42.79645 -1.8877,2.35911 -4.55325,2.21608 -6.6903,-0.35901 z"
       id="path2" />
  </g>
</svg>
